<?xml version="1.0" encoding="UTF-8"?>
<svg id="Layer_1" data-name="Layer 1" xmlns="http://www.w3.org/2000/svg" viewBox="0 0 50 50">
  <defs>
    <style>
      .cls-1 {
        fill: #bc955c;
      }
    </style>
  </defs>
  <path class="cls-1" d="M44.78,29.39V3.07H5.56v26.33h12l3.69,4.18-3.29,3.73c-2.56.34-4.55,2.51-4.55,5.16,0,2.88,2.35,5.23,5.23,5.23s5.23-2.35,5.23-5.23l2.62-2.96,2.62,2.96c0,2.88,2.35,5.23,5.23,5.23s5.23-2.35,5.23-5.23c0-2.65-1.99-4.83-4.55-5.16l-3.29-3.73,3.69-4.18h9.38ZM8.17,26.78V5.68h18.31v2.79h2.62v-2.79h13.08v21.1h-4.46l.02-.02c1.16-1.31,1.73-2.99,1.62-4.73s-.89-3.34-2.2-4.49l-.98-.86-7.08,8.02v-3.14h-2.62v5.23H8.17ZM21.04,29.39h3.9l-1.95,2.21-1.95-2.21ZM18.63,45.09c-1.44,0-2.62-1.17-2.62-2.62s1.17-2.62,2.62-2.62,2.62,1.17,2.62,2.62-1.17,2.62-2.62,2.62ZM34.32,39.86c1.44,0,2.62,1.17,2.62,2.62s-1.17,2.62-2.62,2.62-2.62-1.17-2.62-2.62,1.17-2.62,2.62-2.62ZM31.97,37.83c-.79.4-1.48.98-1.98,1.71l-1.77-2.01,1.74-1.98,2,2.27ZM22.96,39.54c-.5-.73-1.18-1.31-1.98-1.71l7.79-8.83,1.96-2.22h0l5.52-6.26c.28.51.45,1.07.49,1.67.07,1.05-.28,2.05-.97,2.84l-12.8,14.51Z"/>
  <rect class="cls-1" x="26.48" y="11.09" width="2.62" height="2.62"/>
  <rect class="cls-1" x="26.48" y="16.32" width="2.62" height="2.62"/>
  <path class="cls-1" d="M17.32,12.4c.72,0,1.31.59,1.31,1.31h2.62c0-1.7-1.1-3.14-2.62-3.68v-2.8h-2.62v2.8c-1.52.54-2.62,1.98-2.62,3.68,0,2.16,1.76,3.92,3.92,3.92.72,0,1.31.59,1.31,1.31s-.59,1.31-1.31,1.31-1.31-.59-1.31-1.31h-2.62c0,1.7,1.1,3.14,2.62,3.68v2.75h2.62v-2.75c1.52-.54,2.62-1.98,2.62-3.68,0-2.16-1.76-3.92-3.92-3.92-.72,0-1.31-.59-1.31-1.31s.59-1.31,1.31-1.31Z"/>
</svg>