<?xml version="1.0" encoding="UTF-8"?>
<svg id="Layer_1" data-name="Layer 1" xmlns="http://www.w3.org/2000/svg" viewBox="0 0 50 50">
  <defs>
    <style>
      .cls-1 {
        fill: #bc955c;
      }
    </style>
  </defs>
  <rect class="cls-1" x="27.02" y="11.4" width="2.99" height="2.02"/>
  <path class="cls-1" d="M45.91,7.34h-14.78c-2.52-1.72-5.51-2.63-8.55-2.63-6.96,0-13.05,4.74-14.76,11.48-.87.53-1.42,1.48-1.42,2.5v3.24c0,1.61,1.32,2.92,2.92,2.92h3.87c.99,1.89,2.54,3.44,4.42,4.43-7.28,2.06-11.49,7.99-11.49,15.55h2.02c0-8.56,6.16-14.21,14.43-14.21,2.03,0,4.06.37,5.92,1.11-.39.19-.78.37-1.19.52-.34-.59-.98-.96-1.67-.96h-3.32c-1.06,0-1.93.87-1.93,1.93v1.48c0,1.06.87,1.92,1.93,1.92h3.32c1.06,0,1.93-.87,1.93-1.92v-.39c1.1-.38,2.13-.88,3.1-1.49,3.69,2.25,6.33,6.26,6.33,12.02h2.02c0-6.21-2.73-10.64-6.61-13.29,3.42-2.9,5.39-7.12,5.39-11.62,0-.78-.06-1.56-.18-2.33h8.29V7.34ZM25.55,34.61h-3.14v-1.3h3.14v1.3ZM9.33,22.84c-.5,0-.91-.41-.91-.91v-3.24c0-.5.41-.91.91-.91h2.88c-.34,1.67-.28,3.42.19,5.05h-3.06ZM12.83,15.77h-2.79c1.79-5.4,6.84-9.04,12.54-9.04,1.41,0,2.76.22,4.01.62h-4.06v2c-4.24.02-8.04,2.55-9.7,6.43ZM14,19.93c0-4.72,3.81-8.55,8.53-8.57v6.24h5.13v3.97l3.44-2.5c.03.28.04.56.04.86,0,4.73-3.84,8.57-8.57,8.57s-8.57-3.84-8.57-8.57ZM30.55,30.46c-.97-.48-1.98-.87-3.02-1.17,3.46-1.84,5.64-5.42,5.64-9.36,0-.73-.08-1.47-.23-2.19l.19-.14h2.45c.13.77.2,1.55.2,2.33,0,4.15-1.93,8.03-5.23,10.53ZM43.89,15.59h-11.42l-2.8,2.03v-2.03h-5.13v-6.23h19.34v6.23Z"/>
  <rect class="cls-1" x="32.73" y="11.4" width="2.99" height="2.02"/>
  <rect class="cls-1" x="38.43" y="11.4" width="2.99" height="2.02"/>
</svg>