<?xml version="1.0" encoding="UTF-8"?>
<svg id="Layer_1" data-name="Layer 1" xmlns="http://www.w3.org/2000/svg" viewBox="0 0 50 50">
  <defs>
    <style>
      .cls-1 {
        fill: #bc955c;
      }
    </style>
  </defs>
  <path class="cls-1" d="M44.6,9.89l-4.56-4.45c-.26-.25-.61-.4-.97-.4H13.19c-.77,0-1.39.62-1.39,1.39v8.7c.51-.08,1.03-.12,1.56-.12.41,0,.82.03,1.23.07v-7.26h23.09v3.06c0,.77.62,1.39,1.39,1.39h3.16v30.26H14.58v-7.26c-.4.05-.81.07-1.23.07-.53,0-1.05-.04-1.56-.12v8.7c0,.77.62,1.39,1.39,1.39h30.44c.77,0,1.39-.62,1.39-1.39V10.88c0-.37-.15-.73-.42-1Z"/>
  <path class="cls-1" d="M22.15,25.18c0-4.86-3.94-8.79-8.79-8.79s-8.79,3.94-8.79,8.79,3.94,8.79,8.79,8.79,8.79-3.94,8.79-8.79ZM11.16,30.44c-.3-.06-.57-.13-.82-.21-.31-.11-.53-.41-.53-.74v-1.04c0-.31.34-.5.61-.34.25.15.5.27.77.36.5.18,1,.27,1.5.27.03,0,.07,0,.1,0,.25,0,.48-.03.68-.08.17-.04.32-.1.45-.16.04-.02.07-.04.1-.06.15-.1.26-.21.33-.34.07-.13.11-.27.11-.42,0-.2-.06-.39-.17-.55-.1-.13-.22-.25-.37-.37-.03-.03-.07-.05-.11-.08-.2-.14-.44-.27-.72-.39-.1-.04-.2-.09-.3-.14-.19-.08-.39-.17-.6-.25-.82-.34-1.43-.76-1.83-1.25-.4-.49-.6-1.08-.6-1.78,0-.54.11-1.01.33-1.4.22-.39.52-.71.89-.97.38-.25.81-.44,1.31-.56.16-.04.33-.07.49-.1v-.78h1.13v.7c.53,0,.99.03,1.4.1.2.03.39.07.57.12.35.09.59.4.59.76v.92c0,.3-.3.49-.57.37-.21-.09-.42-.17-.64-.23-.22-.06-.44-.11-.65-.14-.22-.03-.42-.04-.62-.04-.03,0-.06,0-.09,0-.23,0-.45.03-.64.08-.19.04-.35.1-.48.17-.02.01-.05.03-.07.04-.15.09-.27.2-.35.33-.08.13-.12.27-.12.43,0,.17.05.33.14.47.09.14.22.27.39.39,0,0,0,0,.01,0,.17.12.37.24.61.36.16.08.33.16.52.24.1.04.2.09.3.13.42.17.79.36,1.13.56s.62.42.86.67c.24.25.42.53.55.85s.19.69.19,1.11c0,.58-.11,1.07-.33,1.47-.22.4-.52.72-.9.96-.38.25-.82.42-1.32.53-.15.03-.31.06-.47.08v.78h-1.13v-.7c-.57,0-1.12-.05-1.63-.15Z"/>
  <polygon class="cls-1" points="27.19 34.88 29.94 34.88 29.94 23.51 28.94 23.14 27.19 24.47 27.19 34.88"/>
  <polygon class="cls-1" points="31.92 34.88 34.68 34.88 34.68 24.13 33.95 24.96 31.92 24.23 31.92 34.88"/>
  <polygon class="cls-1" points="36.66 34.88 39.42 34.88 39.42 18.87 39.35 18.87 36.66 21.9 36.66 34.88"/>
  <path class="cls-1" d="M22.45,29.74v5.14h2.76v-8.9l-1.93,1.47c-.18.8-.46,1.57-.82,2.29Z"/>
  <path class="cls-1" d="M17.71,34.88h2.76v-2.43c-.8.78-1.73,1.44-2.76,1.93v.51Z"/>
  <path class="cls-1" d="M28.92,20.06c-.3-.11-.64-.06-.89.14l-4.61,3.51c.07.48.11.98.11,1.48,0,.09,0,.17,0,.26l5.16-3.93,4.23,1.54c.36.13.77.03,1.03-.26l4.47-5.04.78.69.22-2.96-2.91.57.83.73-4.24,4.78-4.16-1.51Z"/>
</svg>