<?xml version="1.0" encoding="UTF-8"?>
<svg id="Layer_1" data-name="Layer 1" xmlns="http://www.w3.org/2000/svg" viewBox="0 0 50 50">
  <defs>
    <style>
      .cls-1 {
        fill: #bc955c;
      }
    </style>
  </defs>
  <path class="cls-1" d="M42.51,8.55h-3.85c-.12-1.04-.39-2.01-.78-2.8-.68-1.37-1.69-2.12-2.84-2.12s-2.16.75-2.84,2.12c-.4.79-.66,1.76-.78,2.8h-2.6c-.12-1.04-.39-2.01-.78-2.8-.68-1.37-1.69-2.12-2.84-2.12s-2.16.75-2.84,2.12c-.4.79-.66,1.76-.78,2.8h-2.6c-.12-1.04-.39-2.01-.78-2.8-.68-1.37-1.69-2.12-2.84-2.12s-2.16.75-2.84,2.12c-.4.79-.66,1.76-.78,2.8h-3.85c-2.04,0-3.7,1.66-3.7,3.7v29.73c0,2.04,1.66,3.7,3.7,3.7h34.66c2.04,0,3.7-1.66,3.7-3.7V12.24c0-2.04-1.66-3.7-3.7-3.7ZM34.4,6.85c.32-.63.6-.76.64-.76s.33.13.64.76c.23.47.4,1.06.5,1.7h-2.28c.1-.65.27-1.23.5-1.7ZM24.54,6.85c.32-.63.6-.76.64-.76s.33.13.64.76c.23.47.4,1.06.5,1.7h-2.28c.1-.65.27-1.23.5-1.7ZM14.69,6.85c.32-.63.6-.76.64-.76s.33.13.64.76c.23.47.4,1.06.5,1.7h-2.28c.1-.65.27-1.23.5-1.7ZM7.85,11.01h8.62c-.1.65-.27,1.23-.5,1.7-.32.63-.6.76-.64.76-.68,0-1.23.55-1.23,1.23s.55,1.23,1.23,1.23c1.15,0,2.16-.75,2.84-2.12.4-.79.66-1.76.78-2.8h7.37c-.1.65-.27,1.23-.5,1.7-.32.63-.6.76-.64.76-.68,0-1.23.55-1.23,1.23s.55,1.23,1.23,1.23c1.15,0,2.16-.75,2.84-2.12.4-.79.66-1.76.78-2.8h7.37c-.1.65-.27,1.23-.5,1.7-.32.63-.6.76-.64.76-.68,0-1.23.55-1.23,1.23s.55,1.23,1.23,1.23c1.15,0,2.16-.75,2.84-2.12.4-.79.66-1.76.78-2.8h3.85c.68,0,1.23.55,1.23,1.23v6.24H6.62v-6.24c0-.68.55-1.23,1.23-1.23ZM42.51,43.21H7.85c-.68,0-1.23-.55-1.23-1.23v-21.03h37.12v21.03c0,.68-.55,1.23-1.23,1.23Z"/>
  <path class="cls-1" d="M39.97,23.41H10.4c-.68,0-1.23.55-1.23,1.23v14.87c0,.68.55,1.23,1.23,1.23h29.57c.68,0,1.23-.55,1.23-1.23v-14.87c0-.68-.55-1.23-1.23-1.23ZM38.74,30.81h-4.93v-4.93h4.93v4.93ZM23.95,33.27v5.01h-4.93v-5.01h4.93ZM19.02,30.81v-4.93h4.93v4.93h-4.93ZM26.42,33.27h4.93v5.01h-4.93v-5.01ZM26.42,30.81v-4.93h4.93v4.93h-4.93ZM16.56,25.88v4.93h-4.93v-4.93h4.93ZM11.63,33.27h4.93v5.01h-4.93v-5.01ZM33.81,38.28v-5.01h4.93v5.01h-4.93Z"/>
</svg>