<?xml version="1.0" encoding="UTF-8"?>
<svg id="Layer_1" data-name="Layer 1" xmlns="http://www.w3.org/2000/svg" viewBox="0 0 50 50">
  <defs>
    <style>
      .cls-1 {
        fill: #bc955c;
      }
    </style>
  </defs>
  <path class="cls-1" d="M6.41,39.88c.04-.3.26-.87.38-1.16.51-1.2,1.56-2.18,2.79-2.61V9.08c.23-2.26,2.05-4.08,4.31-4.32h26.22c2.21.22,3.99,1.99,4.3,4.17-.18,3.32.27,6.94.01,10.22-.15,1.88-1.65,3.65-3.45,4.15-.91.26-3.68.27-4.67.16-.7-.08-1.31-.69-1.39-1.39.23-4.21-.31-8.75,0-12.92.03-.42.17-.82.24-1.23H14.05c-.44,0-1.31.87-1.31,1.31v26.59h14.93c1.24,0,2.91,1.41,3.49,2.46.6,1.1.41,1.55.63,2.62.36,1.74,2.96,1.66,3.14-.28l.02-12.75c.48-1.78,2.94-1.62,3.15.22-.23,4.2.29,8.69,0,12.85-.14,2.06-1.96,4.15-4.04,4.4H10.45c-2.08-.43-3.62-1.96-4.04-4.04.04-.45-.05-.98,0-1.43ZM38.09,20.3h1.86c.5,0,1.29-.86,1.3-1.39v-9.58c-.21-1.26-1.72-1.87-2.68-.95-.12.11-.48.74-.48.86v11.06ZM28.82,42.18c-.38-1.21.08-2.73-1.5-3.14l-16.42-.02c-1.22.25-1.78,1.73-.88,2.67.11.12.74.48.86.48h17.94Z"/>
  <path class="cls-1" d="M25.43,14.27c.9.2,2.44,1.4,2.53,2.35.12,1.32-1.19,2.22-2.37,1.58-.45-.25-.58-.67-1.08-.9-1.87-.84-3.15,1.84-1.43,2.78.56.3.76.14,1.28.22,5.06.77,5.81,7.43,1.08,9.2-.07.08.02,1.78,0,2.09-.14,1.27-1.71,1.84-2.65.99-.85-.76-.4-2.07-.52-3.08-.82-.18-2.31-1.32-2.49-2.14-.26-1.19.69-2.17,1.89-1.97,1,.17,1.19,1.54,2.58,1.19s1.64-2.21.39-2.89c-.56-.3-.76-.14-1.28-.22-5.06-.77-5.82-7.43-1.08-9.2.12-.94-.29-2.19.41-2.96.65-.72,1.79-.7,2.41.05s.25,1.98.37,2.92Z"/>
</svg>