<?xml version="1.0" encoding="UTF-8"?>
<svg id="Layer_1" data-name="Layer 1" xmlns="http://www.w3.org/2000/svg" viewBox="0 0 50 50">
  <defs>
    <style>
      .cls-1 {
        fill: #bc955c;
      }
    </style>
  </defs>
  <path class="cls-1" d="M6.16,19.35c.14-1.79,2.18-3.97,4-3.97h1.68v2.99h-1.31c-.05,0-.58.19-.66.24-.42.25-.71.81-.72,1.3v11.98c.09.82.64,1.39,1.46,1.46h29.35c.92-.07,1.46-.62,1.53-1.54.33-3.82-.25-8.11,0-11.98-.03-.46-.32-.99-.72-1.23-.08-.05-.61-.24-.66-.24h-1.31v-2.99h1.68c1.92,0,4.07,2.37,4.01,4.3-.21,4.05.26,8.34,0,12.36-.12,1.77-1.21,3.38-2.87,4.02-.18.07-.84.29-.99.29h-13.81v3.89h5.99v2.99h-14.97v-2.99h5.99v-3.89h-13.81c-.33,0-1.27-.41-1.58-.59-1.26-.71-2.03-1.97-2.27-3.38v-13.03Z"/>
  <path class="cls-1" d="M35.79,23.83l-10.44,5.18-10.5-5.18.02-13.69,10.42-5.22,10.43,5.19.06,13.73ZM19.79,11.11l5.56,2.76,5.51-2.79-5.56-2.79-5.34,2.66-.17.16ZM23.83,16.43l-5.99-2.92v8.46l5.99,2.92v-8.46ZM32.81,21.97v-8.46l-5.99,2.92v8.46l5.99-2.92Z"/>
</svg>