<?xml version="1.0" encoding="UTF-8"?>
<svg id="Layer_1" data-name="Layer 1" xmlns="http://www.w3.org/2000/svg" viewBox="0 0 50 50">
  <defs>
    <style>
      .cls-1 {
        fill: #bc955c;
      }
    </style>
  </defs>
  <path class="cls-1" d="M4.91,24.33C5.61,12.8,15.25,4.27,26.85,5c.93.06,4.31.61,4.94,1.15,1.06.89.34,2.58-1.01,2.52-.89-.04-2.35-.61-3.41-.74C11.46,6.1,1.43,24.86,12.04,36.84c11.1,12.53,31.59,3.97,30.65-12.73-.05-.86-.53-2.45-.25-3.17.43-1.09,2.11-1.12,2.59-.07.63,1.39.57,5.39.39,6.95-1.06,9.03-8.45,16.41-17.43,17.6-11.82,1.57-22.44-7.29-23.09-19.14v-1.95Z"/>
  <path class="cls-1" d="M26.64,16.61c1.95.17,3.93,2.11,4.15,4.05.13,1.1-.41,2.04-1.62,1.89-1.4-.18-1-1.72-1.74-2.52-1.07-1.16-4.53-1.01-4.93.93-.61,2.99,3.35,2.8,5.24,3.55,4.65,1.86,3.82,8.78-1.11,9.5.33,2.92-3.23,2.94-2.94,0-2.08-.14-4.61-2.97-4.01-5.05.26-.89,1.48-1.17,2.2-.64.8.59.4,1.63,1.26,2.38,1.2,1.06,4.54.8,4.81-1.19.39-2.83-3.15-2.67-5.01-3.31-4.86-1.7-4.25-8.7.75-9.59-.29-2.94,3.27-2.92,2.94,0Z"/>
  <path class="cls-1" d="M41.8,12.36c.62-.39,1.24-1.5,1.95-1.65,1.36-.29,2.31,1.14,1.47,2.27-.54.73-3.21,3.38-3.95,3.95-.58.45-1.28.45-1.87,0-.77-.59-3.27-3.09-3.86-3.86-.93-1.22.09-2.76,1.52-2.31.74.23,1.27,1.17,1.9,1.6v-6.43s.22-.38.27-.44c.62-.79,1.95-.64,2.4.26.04.08.17.4.17.45v6.16Z"/>
</svg>