<?xml version="1.0" encoding="UTF-8"?>
<svg id="Layer_1" data-name="Layer 1" xmlns="http://www.w3.org/2000/svg" viewBox="0 0 50 50">
  <defs>
    <style>
      .cls-1 {
        fill: #bc955c;
      }
    </style>
  </defs>
  <g id="yw18Kn">
    <g>
      <path class="cls-1" d="M41.23,17.3v25.01c-.39,1.54-1.46,2.61-3,3H13.68c-1.58-.4-2.78-1.58-3-3.23V7.89c.17-1.73,1.52-3.09,3.23-3.31,4.78.28,10-.38,14.73,0,1.14.09,2.24.63,3.09,1.36,2.88,2.49,5.41,6.14,8.27,8.73l.7,1.03.53,1.61ZM23.02,9.51c-2.33.18-5.03,1.29-6.75,2.88-.39.36-1.06.96-.5,1.49.69.65,1.71-.67,2.33-1.11,3.86-2.73,8.76-2.43,12.44.44.47.37.88,1.19,1.59.76.97-.59-.19-1.45-.68-1.85-2.3-1.92-5.44-2.85-8.43-2.61ZM22.93,12.96c-1.41.14-3.48,1.06-4.48,2.06-.54.54-.66,1.47.28,1.47.44,0,.79-.53,1.14-.77,2.41-1.7,5.31-1.95,7.86-.33.35.22,1.14,1.02,1.38,1.07.86.2,1.26-.68.67-1.3-1.64-1.73-4.53-2.43-6.84-2.2ZM27.29,18.92c.72-.78-.67-1.64-1.28-1.9-1.28-.56-2.46-.62-3.76-.09-.66.27-2.2,1.1-1.49,1.97.53.65,1.09-.13,1.46-.36.93-.57,1.99-.7,3.02-.3.63.25,1.43,1.35,2.04.68ZM26.36,21.26c0-1.17-.95-2.13-2.13-2.13s-2.13.95-2.13,2.13.95,2.13,2.13,2.13,2.13-.95,2.13-2.13ZM37.29,40.64c.13-.13.19-.46.21-.65.36-3.93-.28-8.39,0-12.38.02-.3-.14-.54-.37-.72l-22.14-.05c-.37.03-.61.42-.59.77.28,3.98-.36,8.45,0,12.38.06.61.25.81.86.86h21.38c.18,0,.53-.09.65-.21Z"/>
      <rect class="cls-1" x="15.86" y="28.21" width="20.19" height="11.18"/>
      <circle class="cls-1" cx="24.24" cy="21.26" r=".7"/>
    </g>
  </g>
</svg>