<?xml version="1.0" encoding="UTF-8"?>
<svg id="Layer_1" data-name="Layer 1" xmlns="http://www.w3.org/2000/svg" viewBox="0 0 50 50">
  <defs>
    <style>
      .cls-1 {
        fill: #bc955c;
      }
    </style>
  </defs>
  <g id="_74QQS5" data-name="74QQS5">
    <g>
      <path class="cls-1" d="M23.73,5.52c.67.16,1.36.24,2.04.4,4.87,1.18,8.98,4.88,10.75,9.56,1.93,5.11,1.06,10.68-2.16,15.04l1.12,1.13c1.34-1.17,3.41-.19,3.16,1.64-.03.19-.24.55-.18.7l4.73,4.73c1.9,2.53-1.17,5.52-3.64,3.42l-4.62-4.63c-.14-.06-.5.15-.7.18-1.82.25-2.9-1.85-1.63-3.16l-1.14-1.12c-1.01.66-2,1.33-3.11,1.83-8.86,3.94-19.21-1.09-21.49-10.48-.16-.68-.24-1.37-.38-2.05.06-1.09-.09-2.27,0-3.35.56-6.95,6.88-13.27,13.82-13.83h3.42ZM36.27,21.05c0-7.89-6.39-14.28-14.27-14.28s-14.27,6.39-14.27,14.28,6.39,14.28,14.27,14.28,14.27-6.39,14.27-14.28ZM33.51,31.51l-1.06,1.06,1.06,1.06,1.06-1.06-1.06-1.06ZM37.24,32.55c-.28-.31-.63-.18-.92.02-.53.37-2.25,2.14-2.7,2.69-.58.71-.2,1.41.65,1.09.84-.99,2.13-1.91,2.91-2.91.22-.29.34-.57.05-.89ZM37.55,34.89l-1.72,1.72.95.95,1.72-1.72-.95-.95ZM39.34,36.76l-1.64,1.7,2.84,2.84c1.11.75,2.37-.43,1.8-1.59l-3-2.95Z"/>
      <path class="cls-1" d="M12.77,11.81c1.52-1.52,3.9-2.95,6.01-3.41.55-.12,1.3-.26,1.24.58-.05.63-.86.6-1.35.76-1.42.47-2.62,1.03-3.81,1.94-4.28,3.26-5.94,9.32-3.54,14.22l2.47-2.47c.51-.36,1.02-.36,1.53,0l2.92,2.91c.17.03,1.99-2.03,2.36-2.28.69-.49,1.22-.27,1.82.21.96.79,1.72,1.91,2.72,2.65l4.56-4.55c-1,0-1.25-1.23-.18-1.35.38-.04,1.86-.05,2.14.11.09.05.2.18.24.27.1.24.1,1.8.06,2.13-.06.48-.54.78-.98.54-.34-.19-.23-.55-.3-.86l-4.65,4.66c-.46.46-1.2.51-1.71.1l-2.89-2.86c-.17-.03-2.04,2.11-2.5,2.36-.54.29-.98.22-1.45-.14l-2.88-2.87-2.61,2.55c-.08.12,0,.21.05.31.66,1.39,2.87,3.27,4.21,4.02,6.52,3.66,14.86.37,17.04-6.75,2.22-7.22-2.58-14.3-9.96-15.26-.42-.06-1.53.02-1.77-.26-.32-.37-.15-.94.35-1.04.88-.18,3.03.27,3.93.55,12.26,3.68,12.24,21.38-.07,25.01-12.98,3.83-22.5-12.24-12.98-21.76Z"/>
      <path class="cls-1" d="M23.71,13.62c.43-.09.76.19.81.6l-3.89,7.24c-.45.54-1.33.02-1.07-.63l3.74-6.89c.09-.14.24-.29.4-.33Z"/>
      <path class="cls-1" d="M26.98,19.81c0,1.03-.84,1.87-1.87,1.87s-1.87-.84-1.87-1.87.84-1.87,1.87-1.87,1.87.84,1.87,1.87ZM25.72,19.82c0-.34-.27-.61-.61-.61s-.61.27-.61.61.27.61.61.61.61-.27.61-.61Z"/>
      <path class="cls-1" d="M20.77,15.46c0,1.03-.84,1.87-1.87,1.87s-1.87-.84-1.87-1.87.84-1.87,1.87-1.87,1.87.84,1.87,1.87ZM19.52,15.46c0-.34-.27-.61-.61-.61s-.61.27-.61.61.27.61.61.61.61-.27.61-.61Z"/>
    </g>
  </g>
</svg>