<?xml version="1.0" encoding="UTF-8"?>
<svg id="Layer_1" data-name="Layer 1" xmlns="http://www.w3.org/2000/svg" viewBox="0 0 50 50">
  <defs>
    <style>
      .cls-1 {
        fill: #bc955c;
      }
    </style>
  </defs>
  <path class="cls-1" d="M46.43,38.55h-6.57c-.32.41-.46.89-.77,1.31-1.89,2.52-5.83,2.51-7.69-.04-.3-.41-.42-.88-.74-1.26h-9.64c-.07-.01-.11.02-.16.07-.11.1-.47.96-.68,1.24-2.29,3.06-7.04,2.23-8.37-1.28-1.84.02-3.47-.06-4.84-1.42-.51-.51-1.38-2.01-1.38-2.72v-7.77h3.19v7.38c0,.11.3.68.4.8.65.74,1.79.47,2.66.52,1.49-4.2,7.56-4.26,8.98,0h9.65V12.52c0-.53-.92-1.34-1.48-1.32-6.37.06-12.77-.13-19.13.1-.42.06-1.1.84-1.1,1.22v4.59h-3.19v-4.98c0-1.77,2.41-4.04,4.2-4.1h19.46c1.87-.1,4.42,2.28,4.42,4.1v3.87h3.79c1.09,0,2.54,1.09,3.23,1.88,1.87,2.16,3.71,4.94,5.27,7.33l.48,1.72v11.64ZM42.13,25.15l-4.12-5.49c-.17-.16-.74-.49-.95-.49h-3.39v5.98h8.46ZM43.24,28.34h-9.57v4.07c2.45-.81,5.3.46,6.06,2.95h3.51v-7.02ZM17.95,36.97c0-.88-.71-1.59-1.59-1.59s-1.59.71-1.59,1.59.71,1.59,1.59,1.59,1.59-.71,1.59-1.59ZM36.85,36.97c0-.88-.71-1.59-1.59-1.59s-1.59.71-1.59,1.59.71,1.59,1.59,1.59,1.59-.71,1.59-1.59Z"/>
  <polygon class="cls-1" points="18.59 23.48 5.59 23.48 5.59 20.29 18.59 20.29 15.33 16.97 17.59 14.71 24.73 21.86 17.59 29.06 15.33 26.8 18.59 23.48"/>
</svg>