<?xml version="1.0" encoding="UTF-8"?>
<svg id="Layer_1" xmlns="http://www.w3.org/2000/svg" version="1.1" viewBox="0 0 50 50">
  <!-- Generator: Adobe Illustrator 29.7.1, SVG Export Plug-In . SVG Version: 2.1.1 Build 8)  -->
  <defs>
    <style>
      .st0 {
        fill: #082836;
      }
    </style>
  </defs>
  <path class="st0" d="M35.1,4.1H14.8c-1.1.2-2,1-2.4,2-.2,12.4,0,24.9-.1,37.3.1,1.3,1.1,2.2,2.3,2.6h20.8c1.2-.3,1.9-1.1,2.3-2.3v-27.3c-.4-.7-1.1-.8-1.6,0v27.1c-.3.5-.8.9-1.3.9H15.2c-.6,0-1-.4-1.2-.9V7c0-1.7,1.9-1.2,3.1-1.3.4,1.3.6,2.7,1.2,3.9l.4.2h12.4c.3,0,.6-.1.8-.4l1.1-3.6c.9,0,2.3-.3,2.9.6.4.7.1,2.2.2,3.1,0,.9,1.2.9,1.6.2v-3.2c-.4-1.2-1.3-2.2-2.6-2.3h0ZM30.5,8.1h-11.1l-.7-2.5h12.4s-.7,2.5-.7,2.5Z"/>
  <path class="st0" d="M36.2,12.4c-.7,1,.9,1.9,1.5.8v-.6c-.4-.6-1-.9-1.5-.2h0Z"/>
  <path class="st0" d="M16.2,12.3c-.3,0-.5.2-.6.6v28c.4,1.9,1.9.1,2.7-.5.5.4,1.1,1.4,1.8,1.3.6,0,1.3-1.3,1.5-1.2.5.3,1,1.2,1.6,1.2.6,0,1.4-1.3,1.6-1.2.5.3,1,1.2,1.6,1.2.6,0,1.4-1.3,1.6-1.2.5.3,1,1.2,1.6,1.2.7,0,1.4-1.3,1.7-1.3.8.4,2,2.1,2.8.8V13.1c0-.4,0-.7-.5-.8h-17.6s0,0,0,0ZM32.8,39.2c-.4-.2-.8-.7-1.3-.7-.6,0-1.2.9-1.6,1.2-.2,0-1-1.2-1.6-1.2-.6,0-1.2.9-1.6,1.2-.2,0-1-1.2-1.6-1.2-.6,0-1.2.9-1.6,1.2-.2,0-1-1.2-1.6-1.2-.6,0-1.2.9-1.6,1.2-.2,0-1-1.2-1.5-1.2-.5,0-.8.4-1.3.7V13.9h15.5v25.3h0Z"/>
  <path class="st0" d="M19.9,34.4c.2,0,.6.1.7.2.1,0,0,.3.1.5.2.7,1.3.8,1.6,0,0-.2,0-.4,0-.5,0,0,.5-.3.7-.4,1.6-1.1,1.6-3.4-.2-4.4-.3-.2-2-.7-2.1-1-.2-.7.4-1,1-.9.5,0,1.3.9,1.8,0,.5-.9-.6-1.3-1.2-1.6.1-.8-.7-1.4-1.4-.9-.4.3-.2.7-.3.9,0,0-.5.2-.6.3-.9.7-1.3,2.1-.6,3.1.6.9,1.8,1,2.7,1.5.9.5.4,1.6-.6,1.7-1,0-1.6-.8-2.3-.3-.9.7,0,1.5.7,1.8h0Z"/>
  <path class="st0" d="M19.6,20.4h10.7c1-.1,1-1.5,0-1.6h-10.9c-.9.3-.8,1.5.1,1.6Z"/>
  <path class="st0" d="M19.6,23.7h10.7c1-.1,1-1.5,0-1.6h-10.9c-.9.3-.8,1.5.1,1.6Z"/>
  <path class="st0" d="M22.4,17.1c1.6-.2,3.6.2,5.1,0,.9-.1.9-1.5,0-1.6h-5.2c-.9.2-.8,1.5,0,1.6Z"/>
  <path class="st0" d="M30.4,26.3c-.6,0-3.5,0-4,0-.9.2-.8,1.5,0,1.6.6.1,3.3.1,3.9,0,.9-.1.9-1.5,0-1.6h0Z"/>
  <path class="st0" d="M30.4,29.6c-.6,0-3.5,0-4,0-.9.2-.8,1.5,0,1.6.6.1,3.3.1,3.9,0,.9-.1.9-1.5,0-1.6h0Z"/>
  <path class="st0" d="M30.4,32.9c-.6,0-3.5,0-4,0-.9.2-.8,1.5,0,1.6.6,0,3.3,0,3.9,0,.9-.1.9-1.5,0-1.6h0Z"/>
</svg>