<?xml version="1.0" encoding="UTF-8"?>
<svg id="Layer_1" data-name="Layer 1" xmlns="http://www.w3.org/2000/svg" viewBox="0 0 50 50">
  <defs>
    <style>
      .cls-1 {
        fill: #e3b81e;
      }

      .cls-2 {
        fill: #38589a;
      }
    </style>
  </defs>
  <polygon class="cls-2" points="18.63 31.42 20.81 18.61 24.3 18.61 22.12 31.42 18.63 31.42 18.63 31.42"/>
  <path class="cls-2" d="M34.78,18.93c-.69-.26-1.78-.54-3.13-.54-3.45,0-5.88,1.74-5.9,4.23-.02,1.84,1.73,2.87,3.06,3.48,1.36.63,1.82,1.03,1.81,1.59,0,.86-1.09,1.25-2.09,1.25-1.4,0-2.14-.19-3.29-.67l-.45-.2-.49,2.87c.81.36,2.32.67,3.89.68,3.67,0,6.05-1.72,6.08-4.38.01-1.46-.92-2.56-2.93-3.48-1.22-.59-1.97-.99-1.96-1.59,0-.53.63-1.1,2-1.1,1.14-.02,1.97.23,2.61.49l.31.15.47-2.78h0Z"/>
  <path class="cls-2" d="M43.73,18.62h-2.7c-.84,0-1.46.23-1.83,1.06l-5.18,11.74h3.67s.6-1.58.73-1.92c.4,0,3.96,0,4.47,0,.1.45.42,1.92.42,1.92h3.24l-2.83-12.8h0ZM39.43,26.88c.29-.74,1.39-3.58,1.39-3.58-.02.03.29-.74.46-1.22l.24,1.1s.67,3.06.81,3.7h-2.9Z"/>
  <path class="cls-2" d="M15.7,18.62l-3.42,8.73-.37-1.77c-.63-2.05-2.62-4.26-4.83-5.37l3.12,11.2h3.69s5.5-12.79,5.5-12.79h-3.7Z"/>
  <path class="cls-1" d="M9.12,18.61H3.48l-.04.27c4.38,1.06,7.28,3.62,8.48,6.7l-1.22-5.89c-.21-.81-.82-1.05-1.58-1.08h0Z"/>
</svg>