<?xml version="1.0" encoding="UTF-8"?>
<svg id="Layer_1" data-name="Layer 1" xmlns="http://www.w3.org/2000/svg" viewBox="0 0 50 50">
  <defs>
    <style>
      .cls-1 {
        fill: #d38624;
      }

      .cls-1, .cls-2, .cls-3 {
        fill-rule: evenodd;
      }

      .cls-2, .cls-4 {
        fill: #fff;
      }

      .cls-3 {
        fill: #f4ed12;
      }
    </style>
  </defs>
  <path class="cls-1" d="M14.3,15.14l17.32-4.12c2.53-.6,5.09.98,5.69,3.5l4.12,17.32c.31,1.32.03,2.65-.67,3.7H14.29l-3.5-14.72c-.6-2.53.98-5.09,3.5-5.69h0Z"/>
  <polygon class="cls-4" points="14.26 22.22 14.26 29.62 15.94 29.62 15.94 26.53 18.69 26.53 18.69 29.62 20.36 29.62 20.36 22.22 18.69 22.22 18.69 25.06 15.94 25.06 15.94 22.22 14.26 22.22 14.26 22.22"/>
  <path class="cls-4" d="M34.82,27.47c.02-.12.05-.37.05-.66,0-1.33-.66-2.68-2.39-2.68-1.87,0-2.71,1.5-2.71,2.87,0,1.68,1.04,2.73,2.87,2.73.72,0,1.39-.11,1.94-.33l-.22-1.13c-.45.14-.91.22-1.48.22-.78,0-1.46-.33-1.52-1.02h3.46ZM31.35,26.33c.04-.45.33-1.09,1.03-1.09.77,0,.94.68.94,1.09h-1.98Z"/>
  <path class="cls-4" d="M35.41,29.62h1.67v-2.72c0-.13.01-.26.03-.37.11-.52.53-.85,1.14-.85.19,0,.33.02.45.04v-1.57c-.12-.02-.2-.02-.35-.02-.52,0-1.17.33-1.45,1.11h-.04l-.05-.99h-1.44c.02.46.04.98.04,1.77v3.6h0Z"/>
  <path class="cls-3" d="M22.06,21.92c.47,0,.86.38.86.86s-.38.86-.86.86-.86-.38-.86-.86.38-.86.86-.86h0Z"/>
  <path class="cls-2" d="M25.59,28.37h.84c.84,0,1.22-.54,1.22-1.1s-.04-1.83-1.08-1.83c-1.19,0-1,1.58-1,2.4,0,.18.01.35.02.53h0ZM21.2,24.24h1.72v3.03c0,.56.31,1.1,1,1.1,0-1.36,0-2.76-.05-4.13h1.43c.03.26.06.53.09.79.68-1.35,2.81-1.06,3.53.09.74,1.18.99,4.56-2.5,4.56h-.81c0,.69,0,1.37,0,2.06h-1.72c0-.66,0-1.35,0-2.06-1.85,0-2.71-1.18-2.71-2.41v-3.03h0Z"/>
</svg>