<?xml version="1.0" encoding="UTF-8"?>
<svg id="Layer_1" data-name="Layer 1" xmlns="http://www.w3.org/2000/svg" viewBox="0 0 50 50">
  <defs>
    <style>
      .cls-1 {
        fill: #312782;
      }

      .cls-1, .cls-2 {
        fill-rule: evenodd;
      }

      .cls-2 {
        fill: #e30d1c;
      }
    </style>
  </defs>
  <path class="cls-1" d="M5.76,30.69c0,.41,1.63.73,3.64.73s3.69-.32,3.69-.73c0-.44-1.63-.78-3.69-.78s-3.64.34-3.64.78h0Z"/>
  <path class="cls-2" d="M14.6,23.69c0,2.97-2.4,5.34-5.34,5.34s-5.3-2.36-5.3-5.34,2.4-5.37,5.3-5.37,5.34,2.4,5.34,5.37h0ZM7.37,21.32h6.69-6.69Z"/>
  <g>
    <path class="cls-1" d="M23.72,22.06c-.09.4-.22.58-.67.58h-1.66l-1.03,4.79-.09.76h-2.42l.22-.76,1.03-4.79h-2.28l.36-1.52h6.72l-.18.94h0Z"/>
    <path class="cls-1" d="M24.84,27.44l-.09.76h-2.1l.18-.76.9-3.94c.09-.49.18-.58.76-.58h1.34l-.99,4.52h0ZM26.01,21.98c-.09.49-.18.67-.58.67h-1.52l.18-.85c.09-.49.31-.67.58-.67h1.52l-.18.85h0Z"/>
    <path class="cls-1" d="M31.07,23.32l-.36.85c-.4-.27-.67-.27-1.07-.27-.49,0-.85.18-1.25.67-.36.36-.54.94-.54,1.43,0,.67.36,1.12,1.12,1.12.4,0,1.07-.18,1.43-.45h0l-.27,1.03c-.09.18-.09.27-.4.4-.36.18-.94.27-1.52.27-1.52,0-2.37-.85-2.37-2.19,0-.99.58-2.01,1.52-2.69.67-.49,1.52-.76,2.46-.76.81,0,1.34.18,1.34.4,0,0,0,.09-.09.18h0Z"/>
    <path class="cls-1" d="M35.01,24.93l1.43,2.37q.27.58.45.81v.09h-1.7c-.49,0-.49-.09-.85-.67l-1.07-2.19v.18l-.36,1.93-.22.76h-1.97l.18-.76,1.25-5.78c.09-.45.18-.54.76-.54h1.34l-.76,3.31-.13.31.13.09.09-.18,1.34-1.34c.27-.31.45-.4.76-.4h1.7l-2.37,2.02h0Z"/>
    <path class="cls-1" d="M42.35,25.69c0,.18-.09.18-.36.18h-3.18c0,.81.49,1.25,1.34,1.25.58,0,1.34-.18,2.1-.45h0l-.27.76c0,.27-.22.36-.4.54-.49.22-1.34.4-2.02.4-1.7,0-2.87-.94-2.87-2.37,0-1.75,1.66-3.27,3.54-3.27,1.43,0,2.33.76,2.33,2.1,0,.36-.13.76-.22.85h0ZM40.24,23.68c-.58,0-1.12.49-1.34,1.25h1.75c.27,0,.36,0,.36-.49,0-.45-.27-.76-.76-.76h0Z"/>
    <path class="cls-1" d="M47.14,23.9c-.09.18-.18.27-.49.27h-.94l-.49,2.01v.58c0,.27.09.36.4.36.36,0,.76-.09,1.25-.27v.09l-.4.85q-.09.18-.27.31c-.31.18-.9.27-1.43.27-1.07,0-1.66-.49-1.66-1.16q0-.18.09-.67l.49-2.37h-.85l.27-.85,3-1.84.09.09-.31,1.43h1.75l-.49.9h0Z"/>
  </g>
</svg>