<?xml version="1.0" encoding="UTF-8"?>
<svg id="Layer_1" data-name="Layer 1" xmlns="http://www.w3.org/2000/svg" viewBox="0 0 50 50">
  <defs>
    <style>
      .cls-1 {
        fill: #231f20;
      }

      .cls-2 {
        fill: #f79e1b;
      }

      .cls-3 {
        fill: #eb001b;
      }

      .cls-4 {
        fill: #ff5f00;
      }
    </style>
  </defs>
  <g id="Layer_1-2" data-name="Layer 1-2">
    <path class="cls-1" d="M14.18,35.63v-1.44c.03-.47-.32-.88-.8-.91-.04,0-.07,0-.11,0-.32-.02-.63.14-.81.41-.16-.27-.45-.42-.76-.41-.27-.01-.53.12-.67.34v-.28h-.5v2.3h.51v-1.27c-.04-.29.17-.57.46-.61.03,0,.07,0,.1,0,.33,0,.5.22.5.61v1.28h.51v-1.28c-.04-.3.17-.57.47-.61.03,0,.06,0,.1,0,.34,0,.51.22.51.61v1.28h.51ZM21.66,33.33h-.82v-.7h-.51v.7h-.46v.46h.47v1.06c0,.53.21.85.8.85.22,0,.44-.06.63-.18l-.14-.43c-.13.08-.29.12-.44.13-.24,0-.33-.15-.33-.39v-1.05h.82v-.46ZM25.93,33.27c-.25,0-.48.12-.61.34v-.28h-.5v2.3h.5v-1.29c0-.38.16-.59.48-.59.11,0,.21.02.31.06l.15-.48c-.11-.04-.23-.06-.36-.06h0ZM19.47,33.51c-.28-.17-.61-.25-.94-.24-.58,0-.96.28-.96.74,0,.38.28.61.79.68l.24.03c.27.04.4.11.4.24,0,.18-.18.28-.52.28-.27,0-.54-.08-.77-.24l-.24.39c.29.2.64.31,1,.3.66,0,1.05-.31,1.05-.75s-.3-.62-.8-.69l-.24-.03c-.22-.03-.39-.07-.39-.23s.16-.27.44-.27c.25,0,.5.07.72.2l.22-.4ZM32.88,33.27c-.25,0-.48.12-.61.34v-.28h-.5v2.3h.5v-1.29c0-.38.16-.59.48-.59.11,0,.21.02.31.06l.15-.48c-.11-.04-.23-.06-.36-.06h0ZM26.43,34.47c-.02.64.48,1.18,1.12,1.2.04,0,.07,0,.11,0,.3.02.6-.08.83-.27l-.24-.4c-.17.13-.38.2-.6.21-.41-.03-.71-.39-.68-.8.03-.36.32-.65.68-.68.22,0,.43.08.6.21l.24-.4c-.23-.19-.53-.29-.83-.27-.64-.04-1.19.45-1.23,1.09,0,.04,0,.07,0,.11h0ZM31.12,34.47v-1.15h-.5v.28c-.17-.22-.44-.35-.72-.34-.66,0-1.2.54-1.2,1.2s.54,1.2,1.2,1.2c.28.01.55-.12.72-.34v.28h.5v-1.15ZM29.25,34.47c.02-.38.35-.68.74-.65s.68.35.65.74c-.02.37-.32.65-.69.65-.38,0-.69-.3-.7-.68,0-.02,0-.04,0-.05ZM23.21,33.27c-.66,0-1.2.56-1.19,1.22s.56,1.2,1.22,1.19h0c.35.02.69-.09.96-.31l-.24-.37c-.19.15-.43.24-.67.24-.34.03-.65-.22-.69-.56h1.71v-.19c0-.72-.45-1.2-1.09-1.2h0ZM23.21,33.72c.31,0,.58.24.58.56h0s-1.2,0-1.2,0c.02-.32.29-.57.61-.56h0ZM35.75,34.48v-2.07h-.48v1.2c-.17-.22-.44-.35-.72-.34-.66,0-1.2.54-1.2,1.2s.54,1.2,1.2,1.2c.28.01.55-.12.72-.34v.28h.48v-1.14ZM36.59,35.29s.06,0,.09.02c.03.01.05.03.07.05.02.02.04.05.05.07.02.06.02.12,0,.18-.01.03-.03.05-.05.07-.02.02-.05.04-.07.05-.03.01-.06.02-.09.02-.09,0-.18-.06-.22-.14-.02-.06-.02-.12,0-.18.01-.03.03-.05.05-.07.02-.02.05-.04.07-.05.03-.01.06-.02.1-.02h0ZM36.59,35.7s.05,0,.07-.01c.02,0,.04-.02.06-.04.06-.07.06-.17,0-.24-.02-.02-.03-.03-.06-.04-.02,0-.05-.01-.07-.01-.02,0-.05,0-.07.01-.02,0-.04.02-.06.04-.06.07-.06.17,0,.24.02.02.04.03.06.04.02.01.05.02.08.01h0ZM36.6,35.41s.04,0,.06.02c.01.01.02.03.02.05,0,.02,0,.03-.02.04-.01.01-.03.02-.05.02l.07.08h-.06l-.06-.08h-.02v.08h-.05v-.21h.1ZM36.55,35.46v.06h.05s.02,0,.03,0c0,0,0-.01,0-.02,0,0,0-.01,0-.02,0,0-.02,0-.03,0h-.05ZM33.9,34.48c.02-.38.35-.68.74-.65s.68.35.65.74c-.02.37-.32.65-.69.65-.38,0-.69-.3-.7-.68,0-.02,0-.04,0-.05ZM17,34.48v-1.15h-.5v.28c-.17-.22-.44-.35-.72-.34-.66,0-1.2.54-1.2,1.2s.54,1.2,1.2,1.2c.28.01.55-.12.72-.34v.28h.5v-1.14ZM15.14,34.48c.02-.38.35-.68.74-.65s.68.35.65.74c-.02.37-.32.65-.69.65-.38,0-.7-.3-.7-.68,0-.02,0-.04,0-.06h0Z"/>
    <g id="_Group_" data-name=" Group ">
      <rect class="cls-4" x="19.89" y="15.8" width="7.58" height="13.62"/>
      <path id="_Path_" data-name=" Path " class="cls-3" d="M20.37,22.61c0-2.66,1.22-5.17,3.31-6.81-3.76-2.96-9.21-2.3-12.16,1.46-2.96,3.76-2.3,9.21,1.46,12.16,3.14,2.47,7.56,2.47,10.71,0-2.09-1.64-3.31-4.15-3.31-6.81Z"/>
      <path class="cls-2" d="M37.69,22.61c0,4.78-3.88,8.66-8.66,8.66-1.94,0-3.83-.65-5.35-1.85,3.76-2.96,4.41-8.4,1.46-12.16-.43-.54-.92-1.03-1.46-1.46,3.76-2.96,9.21-2.31,12.17,1.46,1.2,1.53,1.85,3.41,1.85,5.35h0Z"/>
      <path class="cls-2" d="M36.87,27.98v-.28h.11v-.06h-.29v.06h.12v.28h.05ZM37.42,27.98v-.34h-.09l-.1.24-.1-.24h-.08v.34h.06v-.25l.09.22h.06l.09-.22v.26h.05Z"/>
    </g>
  </g>
</svg>