<?xml version="1.0" encoding="UTF-8"?>
<svg id="Layer_1" data-name="Layer 1" xmlns="http://www.w3.org/2000/svg" viewBox="0 0 50 50">
  <defs>
    <style>
      .cls-1 {
        fill: #fff;
      }

      .cls-1, .cls-2 {
        fill-rule: evenodd;
      }

      .cls-2 {
        fill: #851324;
      }
    </style>
  </defs>
  <path id="fundo" class="cls-2" d="M17.52,16.86h-3.99c-1.76.08-3.2.79-3.62,2.26-.22.76-.34,1.6-.51,2.39-.86,4.02-1.63,8.16-2.45,12.1h31.06c2.4,0,4.05-.51,4.5-2.41.21-.89.41-1.89.6-2.86.77-3.79,1.54-7.58,2.34-11.48h-27.93Z"/>
  <path id="hipercard" class="cls-1" d="M17.2,22.81c.17-.11.38-.64.14-.86-.08-.07-.21-.09-.39-.06-.17.03-.27.09-.33.18-.11.14-.2.58-.04.74.16.16.52.07.62,0ZM14.83,21.95c-.12.78-.25,1.54-.39,2.3-.87,0-1.75.04-2.59-.02.16-.74.27-1.53.43-2.28h-.93c-.33,1.9-.64,3.82-1.01,5.68h.95c.15-.95.29-1.92.49-2.82.81-.02,1.79-.05,2.57.02-.16.94-.36,1.85-.51,2.8h.95c.31-1.93.63-3.83,1.01-5.68h-.97ZM28.32,23.59c-.74-.3-1.33.21-1.6.68.06-.21.09-.46.14-.68h-.74c-.18,1.4-.45,2.72-.7,4.05h.84c.12-.79.17-1.85.43-2.61.21-.6.75-1.12,1.54-.84.01-.22.07-.39.1-.6ZM28.78,26.68c-.08-.2-.1-.53-.08-.78.04-.56.25-1.25.56-1.56.44-.43,1.3-.36,1.99-.12.02-.23.07-.44.1-.66-1.13-.18-2.2-.07-2.76.53-.56.58-.92,1.92-.66,2.76.3.99,1.65,1.04,2.74.66.05-.2.07-.42.12-.62-.6.31-1.74.47-2-.21ZM38.18,23.61c-.74-.37-1.36.25-1.6.62.07-.19.07-.45.14-.64h-.74c-.2,1.39-.44,2.74-.72,4.05h.86c0-.54.11-.93.19-1.46.18-1.12.44-2.36,1.75-1.99.04-.19.06-.41.12-.58ZM16.35,23.59s-.02.03-.02.06c-.18,1.38-.43,2.69-.7,3.99h.84c.2-1.39.43-2.75.72-4.05h-.84ZM23.7,23.51c-.6.05-1.12.22-1.48.6-.45.47-.81,1.51-.7,2.45.15,1.35,1.83,1.3,3.17.97.02-.24.08-.44.12-.66-.55.21-1.51.5-2.08.14-.43-.27-.43-.96-.29-1.56.9-.03,1.84-.02,2.74,0,.06-.42.22-.89.08-1.3-.19-.55-.87-.7-1.56-.64ZM24.5,24.99h-1.97c.06-.45.47-.95,1.11-.97.6-.02,1.03.22.86.97ZM20.53,23.59c-.71-.27-1.57.05-1.95.35,0,.01,0,.02-.02.02,0,0,.01-.01.02-.02,0,0,0,0,0,0,0-.13.05-.22.06-.35h-.72c-.3,2-.66,3.94-1.03,5.86h.84c.12-.75.2-1.54.37-2.24.19.74,1.44.6,1.97.31,1.09-.59,1.92-3.38.47-3.93ZM19.87,26.88c-.45.47-1.55.47-1.63-.33-.04-.35.09-.71.16-1.07.06-.36.11-.71.18-1.03.44-.54,1.74-.6,1.87.29.11.78-.19,1.75-.56,2.14ZM41.3,21.84c-.07.63-.17,1.23-.29,1.81-2.05-.65-3.31.86-3.29,2.72,0,.36.07.72.29.97.39.44,1.5.54,2.06.18.11-.07.22-.2.29-.29.05-.07.14-.25.16-.19-.03.2-.07.38-.08.6h.76c.15-2.1.6-3.89.93-5.8h-.84ZM39.43,27.19c-.56.01-.84-.34-.86-.91-.02-1.01.42-2.14,1.32-2.24.42-.05.72.05,1.03.16-.28,1.14-.18,2.97-1.5,3ZM32.21,23.59c-.04.23-.1.44-.16.66.49-.12,2.03-.5,2.18.16.05.22-.04.45-.1.62-1.39-.13-2.52.1-2.82,1.09-.2.66.02,1.32.45,1.5.82.35,1.82-.05,2.16-.6-.04.19-.07.38-.06.62h.72c0-.69.11-1.25.21-1.87.09-.53.26-1.05.23-1.52-.06-1.07-1.83-.69-2.82-.66ZM33.57,26.86c-.43.42-1.64.54-1.52-.47.1-.84,1.02-1.02,2-.9-.07.46-.16,1.04-.49,1.36Z"/>
</svg>