<?xml version="1.0" encoding="UTF-8"?>
<svg id="Layer_1" data-name="Layer 1" xmlns="http://www.w3.org/2000/svg" viewBox="0 0 50 50">
  <g>
    <path d="M38.48,24.25v5.1c-.28,1.58-1.35,2.57-2.89,2.9h-5.03c-1.17-.33-1.19-2.09.09-2.21,1.42-.13,3.04.13,4.46,0,.65-.06,1.09-.36,1.16-1.04.15-1.45-.13-3.14,0-4.6.11-1.28,1.86-1.3,2.2-.15Z"/>
    <path d="M22.28,32.25h-5.03c-1.5-.27-2.59-1.27-2.89-2.77v-5.29c.55-1.2,2.09-1,2.2.41s-.16,3.14,0,4.54c.07.64.58.86,1.16.91,1.43.12,3.05-.13,4.46,0,.75.07,1,.66.9,1.35-.07.5-.43.64-.81.86Z"/>
    <path d="M35.85,8.06c1.44.37,2.37,1.37,2.64,2.83v5.1c-.35,1.15-2.09,1.13-2.2-.15-.13-1.46.15-3.15,0-4.6-.07-.68-.51-.98-1.16-1.04-1.42-.13-3.04.13-4.46,0-1.19-.1-1.28-1.67-.28-2.14h5.47Z"/>
    <path d="M22.4,8.06c1.02.39.96,2.03-.22,2.14-1.41.13-3.03-.12-4.46,0-.58.05-1.09.27-1.16.91-.16,1.4.12,3.1,0,4.54s-1.65,1.61-2.2.41c.15-1.65-.2-3.68,0-5.29.17-1.3,1.33-2.41,2.58-2.71h5.47Z"/>
    <path d="M21,12.55l10.72-.02c1.24.14,2.2,1.1,2.3,2.36.27,3.38-.21,7.11,0,10.52-.11,1.27-1.08,2.26-2.36,2.36-3.37.27-7.09-.21-10.5,0-1.27-.11-2.26-1.08-2.36-2.36-.27-3.4.2-7.15,0-10.58.13-1.18,1.01-2.11,2.18-2.28ZM32.02,14.55h-11.19s0,11.22,0,11.22h11.19s0-11.22,0-11.22Z"/>
  </g>
  <g>
    <path d="M9.55,39.53c0-.6.11-1.1.32-1.52s.51-.74.89-.96.84-.33,1.36-.33.98.11,1.36.32c.38.22.67.53.88.94s.31.91.31,1.5c0,.44-.06.84-.18,1.19s-.29.65-.52.89l.62.76-.65.54-.66-.8c-.35.17-.75.25-1.2.25-.52,0-.97-.11-1.35-.32-.38-.22-.68-.53-.88-.95-.21-.41-.31-.92-.31-1.51ZM10.76,39.53c0,.56.11,1,.34,1.32.23.32.57.48,1.02.48.19,0,.37-.03.51-.1l-.62-.76.63-.51.58.71c.17-.3.25-.68.25-1.13,0-.56-.12-1-.35-1.32-.23-.32-.57-.47-1.01-.47s-.79.16-1.02.47c-.23.32-.34.75-.34,1.32Z"/>
    <path d="M15.48,36.86h2.01c.5,0,.9.07,1.2.21.3.14.52.33.65.58.13.25.2.53.2.84,0,.34-.07.63-.21.88s-.35.45-.64.6l1.11,2.22h-1.23l-.93-1.97s-.08,0-.12,0c-.04,0-.08,0-.12,0h-.81v1.96h-1.12v-5.32ZM18.41,38.52c0-.25-.07-.44-.22-.56-.14-.13-.4-.19-.78-.19h-.81v1.55h.86c.37,0,.62-.07.75-.2s.2-.33.2-.59Z"/>
    <path d="M21.75,39.55c0-.6.1-1.11.31-1.53.21-.42.5-.74.88-.96.38-.22.82-.33,1.33-.33.67,0,1.17.16,1.52.48.35.32.57.77.68,1.35l-1.16.14c-.07-.31-.19-.55-.35-.72-.16-.16-.4-.25-.73-.25-.4,0-.71.16-.92.47-.21.31-.32.75-.32,1.3s.11,1.01.32,1.32c.22.31.53.47.95.47.35,0,.61-.09.78-.27.17-.18.28-.43.32-.73h1.18c-.05.61-.27,1.09-.66,1.47s-.94.56-1.65.56c-.78,0-1.39-.24-1.83-.72-.44-.48-.66-1.16-.66-2.04Z"/>
    <path d="M27.07,39.53c0-.6.11-1.1.32-1.52s.51-.74.9-.96c.39-.22.84-.33,1.36-.33s.97.11,1.36.32c.38.22.68.53.88.94.21.41.31.92.31,1.51s-.1,1.1-.31,1.52-.5.74-.89.96c-.38.22-.84.33-1.37.33s-.97-.11-1.36-.32c-.38-.22-.68-.53-.89-.94s-.31-.92-.31-1.51ZM28.3,39.52c0,.56.11.99.34,1.31.22.32.56.47,1.01.47s.78-.16,1-.47.34-.75.34-1.31-.11-.99-.34-1.31c-.23-.32-.56-.47-1-.47s-.78.16-1.01.47c-.22.32-.34.75-.34,1.31Z"/>
    <path d="M33,36.86h2.02c.84,0,1.49.22,1.94.66.45.44.68,1.09.68,1.97s-.24,1.56-.71,2.01c-.47.46-1.14.69-1.99.69h-1.93v-5.32ZM36.44,39.5c0-.53-.11-.94-.33-1.22s-.57-.43-1.06-.43h-.89v3.34h.82c.5,0,.87-.15,1.11-.44.24-.29.35-.71.35-1.25Z"/>
    <path d="M38.44,36.86h3.69v.95h-2.54v1.19h2.39v.95h-2.39v1.3h2.68l-.12.95h-3.72v-5.32Z"/>
  </g>
</svg>