<?xml version="1.0" encoding="UTF-8"?>
<svg id="Layer_1" data-name="Layer 1" xmlns="http://www.w3.org/2000/svg" viewBox="0 0 50 50">
  <defs>
    <style>
      .cls-1 {
        fill: #314a3a;
      }
    </style>
  </defs>
  <path class="cls-1" d="M3.05,22.84h3.28c.59-3.12,3.31-5.64,6.77-5.64,3.94,0,6.7,2.81,6.7,7.04,0,.45-.05.81-.09,1.13h-10.59c.5,1.92,2.08,3.06,3.98,3.06,1.63,0,2.85-.63,3.83-1.74l1.95,1.79c-1.29,1.47-3.21,2.49-5.77,2.49-3.46,0-6.18-2.47-6.77-5.59h-3.28v-2.54ZM16.99,22.84c-.14-.79-.5-1.52-1.02-2.04-.68-.68-1.68-1.11-2.87-1.11s-2.17.41-2.9,1.13c-.5.5-.91,1.18-1.11,2.01h7.9ZM21.77,17.3h2.85v10.87h5.16v2.72h-5.12c-1.88,0-2.9-1.02-2.9-2.9v-10.68ZM30.33,24.09c0-3.69,3.01-6.88,6.99-6.88,3.53,0,6.29,2.49,6.88,5.64h3.28v2.54h-3.28c-.61,3.12-3.37,5.59-6.88,5.59-4.01,0-6.99-3.17-6.99-6.88ZM37.32,28.3c2.38,0,4.14-1.81,4.14-4.19s-1.81-4.23-4.14-4.23-4.14,1.81-4.14,4.21,1.81,4.21,4.14,4.21Z"/>
</svg>