<?xml version="1.0" encoding="UTF-8"?>
<svg id="Layer_1" data-name="Layer 1" xmlns="http://www.w3.org/2000/svg" viewBox="0 0 50 50">
  <defs>
    <style>
      .cls-1 {
        fill: #71baab;
      }

      .cls-2 {
        fill: #919395;
      }
    </style>
  </defs>
  <g id="g972">
    <g id="path974">
      <path class="cls-2" d="M13.22,43.45c-.15,0-.28-.12-.28-.28v-8.95c0-1.8,1.46-3.26,3.26-3.26h2.64c1.79,0,3.25,1.47,3.25,3.26v1.91c0,1.8-1.46,3.26-3.26,3.26h-3.74c-.15,0-.28-.12-.28-.28s.12-.28.28-.28h3.74c1.49,0,2.71-1.21,2.71-2.71v-1.91c0-1.49-1.21-2.7-2.7-2.7h-2.64c-1.49,0-2.71,1.21-2.71,2.7v8.95c0,.15-.12.28-.28.28Z"/>
    </g>
  </g>
  <g id="g976">
    <g id="path978">
      <path class="cls-2" d="M24.93,39.42c-.15,0-.28-.12-.28-.28v-6.69c0-.52-.43-.95-.95-.95h-1.15c-.15,0-.28-.12-.28-.28s.12-.28.28-.28h1.15c.83,0,1.5.67,1.5,1.5v6.69c0,.15-.12.28-.28.28Z"/>
    </g>
  </g>
  <g id="g980">
    <g id="path982">
      <path class="cls-1" d="M24.68,30.2l-.52-.52c-.13-.13-.13-.34,0-.47l.52-.52c.13-.13.34-.13.47,0l.52.52c.13.13.13.34,0,.47l-.52.52c-.13.13-.34.13-.47,0"/>
    </g>
  </g>
  <g id="g984">
    <g id="path986">
      <path class="cls-2" d="M33.11,35.07c-.31,0-.6-.12-.82-.34l-2.66-2.66c-.36-.36-.85-.57-1.36-.57h-1.14c-.15,0-.28-.12-.28-.28s.12-.28.28-.28h1.14c.66,0,1.29.26,1.75.73l2.66,2.66c.11.11.27.18.43.18s.31-.06.43-.18l2.65-2.65c.47-.47,1.09-.73,1.75-.73h.92c.15,0,.28.12.28.28s-.12.28-.28.28h-.92c-.52,0-1,.2-1.36.57l-2.65,2.65c-.22.22-.51.34-.82.34Z"/>
    </g>
  </g>
  <g id="g988">
    <g id="path990">
      <path class="cls-2" d="M28.27,39.37h-1.14c-.15,0-.28-.12-.28-.28s.12-.28.28-.28h1.14c.52,0,1-.2,1.36-.57l2.66-2.66c.22-.22.51-.34.82-.34s.6.12.82.34l2.65,2.65c.36.36.85.57,1.36.57h.92c.15,0,.28.12.28.28s-.12.28-.28.28h-.92c-.66,0-1.29-.26-1.75-.73l-2.65-2.65c-.11-.11-.27-.18-.43-.18s-.31.06-.43.18l-2.66,2.66c-.47.47-1.09.73-1.75.73Z"/>
    </g>
  </g>
  <g>
    <g id="g992">
      <g id="path994">
        <path class="cls-1" d="M29.46,20.61c-.75,0-1.45-.29-1.98-.82l-2.86-2.86c-.2-.2-.55-.2-.75,0l-2.87,2.87c-.53.53-1.23.82-1.98.82h-.56l3.63,3.63c1.13,1.13,2.97,1.13,4.1,0l3.64-3.64h-.34Z"/>
      </g>
    </g>
    <g id="g996">
      <g id="path998">
        <path class="cls-1" d="M19.01,10.48c.75,0,1.45.29,1.98.82l2.87,2.87c.21.21.54.21.75,0l2.86-2.86c.53-.53,1.23-.82,1.98-.82h.34l-3.64-3.64c-1.13-1.13-2.97-1.13-4.1,0l-3.63,3.63h.56Z"/>
      </g>
    </g>
    <g id="g1000">
      <g id="path1002">
        <path class="cls-1" d="M32.81,13.5l-2.2-2.2s-.1.03-.16.03h-1c-.52,0-1.02.21-1.39.57l-2.86,2.86c-.27.27-.62.4-.97.4s-.7-.13-.97-.4l-2.87-2.87c-.36-.37-.87-.57-1.39-.57h-1.23c-.05,0-.1-.01-.15-.03l-2.21,2.21c-1.13,1.13-1.13,2.97,0,4.1l2.21,2.21s.1-.03.15-.03h1.23c.52,0,1.02-.21,1.39-.57l2.87-2.87c.52-.52,1.42-.52,1.94,0l2.86,2.86c.36.37.87.57,1.39.57h1c.06,0,.11.01.16.03l2.2-2.2c1.13-1.13,1.13-2.97,0-4.1"/>
      </g>
    </g>
  </g>
  <g id="g1004">
    <g id="path1006">
      <path class="cls-2" d="M15.49,42.41c-.12,0-.27.03-.41.06v.55c.1.04.21.05.32.05.27,0,.4-.09.4-.33,0-.23-.11-.33-.31-.33M14.99,43.43v-1.08h.08v.05c.13-.03.31-.07.43-.07.1,0,.2.02.28.08.09.08.12.2.12.33s-.05.27-.18.35c-.09.05-.21.07-.32.07s-.22-.02-.33-.05v.32h-.09Z"/>
    </g>
  </g>
  <g id="g1008">
    <g id="path1010">
      <path class="cls-2" d="M16.59,42.41c-.27,0-.4.09-.4.33s.12.34.4.34.39-.08.39-.33-.12-.34-.39-.34M16.94,43.07c-.09.07-.21.08-.35.08s-.26-.02-.35-.08c-.1-.07-.14-.19-.14-.33s.04-.26.14-.33c.09-.06.21-.08.35-.08s.26.02.35.08c.1.07.14.19.14.33s-.04.26-.14.33"/>
    </g>
  </g>
  <g id="g1012">
    <g id="path1014">
      <path class="cls-2" d="M18.24,43.14l-.3-.66h0l-.3.66h-.08l-.33-.79h.1l.27.66h0l.29-.66h.08l.3.66h0l.26-.66h.1l-.33.79h-.08Z"/>
    </g>
  </g>
  <g id="g1016">
    <g id="path1018">
      <path class="cls-2" d="M19.24,42.41c-.25,0-.34.11-.35.28h.71c0-.18-.1-.28-.35-.28M19.23,43.16c-.15,0-.25-.02-.33-.09-.09-.08-.12-.2-.12-.33s.04-.26.15-.34c.09-.06.2-.08.31-.08.1,0,.22.01.32.08.11.08.14.21.14.36h-.81c0,.16.06.31.36.31.15,0,.28-.02.41-.05v.08c-.13.02-.28.05-.42.05"/>
    </g>
  </g>
  <g id="g1020">
    <g id="path1022">
      <path class="cls-2" d="M19.95,43.14v-.79h.08v.05c.18-.04.25-.07.4-.07h.01v.09h-.02c-.12,0-.2.02-.37.06v.66h-.09Z"/>
    </g>
  </g>
  <g id="g1024">
    <g id="path1026">
      <path class="cls-2" d="M20.98,42.41c-.25,0-.34.11-.35.28h.71c0-.18-.1-.28-.35-.28M20.97,43.16c-.15,0-.25-.02-.33-.09-.09-.08-.12-.2-.12-.33s.04-.26.15-.34c.09-.06.2-.08.31-.08.1,0,.22.01.32.08.11.08.14.21.14.36h-.81c0,.16.06.31.36.31.15,0,.28-.02.41-.05v.08c-.13.02-.28.05-.42.05"/>
    </g>
  </g>
  <g id="g1028">
    <g id="path1030">
      <path class="cls-2" d="M22.44,42.46c-.1-.04-.21-.05-.32-.05-.27,0-.4.09-.4.33,0,.23.11.33.31.33.12,0,.27-.03.41-.06v-.55ZM22.46,43.14v-.05c-.13.03-.31.07-.43.07-.1,0-.2-.01-.28-.08-.09-.08-.12-.2-.12-.33s.05-.27.18-.35c.09-.05.21-.07.32-.07s.22.02.33.05v-.36h.09v1.12h-.08Z"/>
    </g>
  </g>
  <g id="g1032">
    <g id="path1034">
      <path class="cls-2" d="M23.88,42.41c-.12,0-.27.03-.41.06v.54c.1.04.21.05.32.05.27,0,.4-.09.4-.33,0-.23-.11-.33-.31-.33M24.12,43.09c-.09.05-.21.07-.32.07-.12,0-.23-.02-.35-.06v.04h-.07v-1.12h.09v.38c.13-.03.3-.07.42-.07.1,0,.2.02.28.08.09.08.12.2.12.33s-.05.27-.18.35"/>
    </g>
  </g>
  <g id="g1036">
    <g id="path1038">
      <path class="cls-2" d="M24.42,43.44v-.09s.09,0,.12,0c.11,0,.18-.03.25-.16l.03-.06-.41-.79h.11l.35.68h0l.34-.68h.1l-.44.89c-.08.16-.17.21-.33.21-.04,0-.07,0-.11,0"/>
    </g>
  </g>
  <g id="g1040">
    <g id="path1042">
      <path class="cls-2" d="M26.58,42.69h-.31v.28h.31c.21,0,.29-.02.29-.14,0-.12-.11-.14-.29-.14M26.52,42.24h-.25v.28h.25c.21,0,.29-.02.29-.14,0-.13-.1-.14-.29-.14M27,43.06c-.11.07-.25.07-.5.07h-.47v-1.07h.46c.21,0,.35,0,.46.07.08.05.11.12.11.21,0,.11-.05.19-.17.24h0c.14.04.23.11.23.26,0,.1-.04.17-.11.22"/>
    </g>
  </g>
  <g id="g1044">
    <g id="path1046">
      <path class="cls-2" d="M28.05,42.81c-.09,0-.19-.01-.28-.01-.16,0-.22.03-.22.11,0,.07.05.11.17.11.1,0,.23-.02.33-.05v-.15ZM28.09,43.14v-.05c-.14.03-.3.07-.43.07-.08,0-.18-.01-.24-.06-.06-.04-.09-.11-.09-.19,0-.09.04-.17.13-.21.08-.04.19-.04.3-.04.08,0,.19,0,.29.01h0c0-.14-.08-.18-.3-.18-.09,0-.19,0-.29.01v-.16c.11,0,.24-.02.34-.02.14,0,.28.01.37.07.09.06.11.15.11.27v.47h-.17Z"/>
    </g>
  </g>
  <g id="g1048">
    <g id="path1050">
      <path class="cls-2" d="M29.3,43.14v-.44c0-.14-.07-.2-.2-.2-.1,0-.22.02-.32.05v.58h-.22v-.79h.18v.05c.15-.04.3-.07.43-.07.1,0,.2.01.27.08.06.06.09.13.09.25v.48h-.22Z"/>
    </g>
  </g>
  <g id="g1052">
    <g id="path1054">
      <path class="cls-2" d="M30.14,43.16c-.1,0-.21-.01-.29-.08-.1-.08-.13-.2-.13-.33,0-.13.04-.26.16-.34.1-.06.22-.08.35-.08.09,0,.18,0,.28.02v.17c-.08,0-.18-.01-.25-.01-.21,0-.31.07-.31.25,0,.17.07.24.25.24.1,0,.22-.02.33-.04v.16c-.12.03-.26.05-.38.05"/>
    </g>
  </g>
  <g id="g1056">
    <g id="path1058">
      <path class="cls-2" d="M31.17,42.49c-.21,0-.3.07-.3.25s.09.26.3.26.3-.06.3-.24-.09-.26-.3-.26M31.55,43.08c-.1.07-.22.08-.38.08s-.28-.02-.38-.08c-.11-.07-.15-.19-.15-.33s.04-.26.15-.33c.1-.06.22-.08.38-.08s.28.02.38.08c.11.07.15.19.15.33s-.04.26-.15.33"/>
    </g>
  </g>
  <g id="g1060">
    <g id="path1062">
      <path class="cls-2" d="M32.97,43.16c-.13,0-.28-.02-.38-.11-.13-.11-.17-.27-.17-.45,0-.16.05-.35.22-.46.13-.08.29-.1.45-.1.12,0,.24,0,.37.02v.19c-.11,0-.25-.02-.36-.02-.3,0-.43.12-.43.36s.12.36.35.36c.15,0,.31-.03.48-.06v.19c-.17.03-.34.07-.52.07"/>
    </g>
  </g>
  <g id="g1064">
    <g id="path1066">
      <path class="cls-2" d="M34.14,42.47c-.18,0-.25.07-.27.19h.53c0-.13-.08-.19-.26-.19M34.1,43.16c-.13,0-.25-.02-.33-.09-.09-.08-.13-.2-.13-.33,0-.12.04-.25.15-.33.1-.07.22-.08.35-.08.11,0,.25.01.34.08.13.09.14.23.14.39h-.75c0,.12.07.2.29.2.14,0,.29-.02.42-.04v.15c-.15.03-.32.05-.48.05"/>
    </g>
  </g>
  <g id="g1068">
    <g id="path1070">
      <path class="cls-2" d="M35.6,43.14v-.44c0-.14-.07-.2-.2-.2-.1,0-.22.02-.32.05v.58h-.22v-.79h.18v.05c.15-.04.3-.07.43-.07.1,0,.2.01.27.08.06.06.09.13.09.25v.48h-.22Z"/>
    </g>
  </g>
  <g id="g1072">
    <g id="path1074">
      <path class="cls-2" d="M36.45,43.16c-.11,0-.2-.03-.26-.11-.04-.06-.06-.13-.06-.24v-.3h-.16v-.16h.16l.02-.24h.2v.24h.31v.16h-.31v.25c0,.06,0,.11.02.15.02.05.08.07.14.07.05,0,.11,0,.16-.02v.16c-.07.01-.15.03-.23.03"/>
    </g>
  </g>
  <g id="g1076">
    <g id="path1078">
      <path class="cls-2" d="M36.88,43.14v-.79h.18v.05c.15-.04.26-.07.4-.07,0,0,.02,0,.03,0v.19s-.05,0-.08,0c-.11,0-.19.01-.31.04v.58h-.22Z"/>
    </g>
  </g>
  <g id="g1080">
    <g id="path1082">
      <path class="cls-2" d="M38.29,42.81c-.09,0-.19-.01-.28-.01-.16,0-.22.03-.22.11,0,.07.05.11.17.11.1,0,.23-.02.33-.05v-.15ZM38.33,43.14v-.05c-.14.03-.3.07-.43.07-.08,0-.18-.01-.24-.06-.06-.04-.09-.11-.09-.19,0-.09.04-.17.13-.21.08-.04.19-.04.3-.04.08,0,.19,0,.29.01h0c0-.14-.08-.18-.3-.18-.09,0-.19,0-.29.01v-.16c.11,0,.24-.02.34-.02.14,0,.28.01.37.07.09.06.11.15.11.27v.47h-.17Z"/>
    </g>
  </g>
  <g id="path1084">
    <path class="cls-2" d="M38.79,42.01h.22v1.12h-.22v-1.12Z"/>
  </g>
</svg>