<?xml version="1.0" encoding="UTF-8"?>
<svg id="Layer_1" data-name="Layer 1" xmlns="http://www.w3.org/2000/svg" xmlns:xlink="http://www.w3.org/1999/xlink" viewBox="0 0 50 50">
  <defs>
    <style>
      .cls-1 {
        fill: url(#radial-gradient);
      }

      .cls-2 {
        fill: #fff;
      }
    </style>
    <radialGradient id="radial-gradient" cx="-131.64" cy="306.4" fx="-131.64" fy="306.4" r="26.18" gradientTransform="translate(149.05 322.31) scale(1 -1)" gradientUnits="userSpaceOnUse">
      <stop offset="0" stop-color="#9dd5f6"/>
      <stop offset=".07" stop-color="#98d3f5"/>
      <stop offset=".16" stop-color="#89cef3"/>
      <stop offset=".25" stop-color="#70c6ef"/>
      <stop offset=".35" stop-color="#4ebbea"/>
      <stop offset=".45" stop-color="#23ade3"/>
      <stop offset=".5" stop-color="#0da6e0"/>
      <stop offset="1" stop-color="#2e77bc"/>
    </radialGradient>
  </defs>
  <path class="cls-1" d="M40.4,11.02H12.49v28h27.9v-9.24c.11-.16.17-.37.17-.62,0-.29-.05-.46-.17-.61"/>
  <path class="cls-2" d="M15.01,23.13l-.54-1.31-.53,1.31M26.83,22.61c-.11.07-.24.07-.39.07h-.95v-.73h.97c.14,0,.28,0,.37.06.1.05.16.15.16.29s-.06.26-.16.31ZM33.63,23.13l-.54-1.31-.54,1.31h1.08ZM20.96,24.55h-.8v-2.57s-1.14,2.57-1.14,2.57h-.69l-1.14-2.57v2.57h-1.6l-.3-.73h-1.63l-.3.73h-.85l1.4-3.28h1.17l1.33,3.11v-3.11h1.28l1.03,2.23.94-2.23h1.31v3.28h0ZM24.17,24.55h-2.62v-3.28h2.62v.68h-1.84v.59h1.79v.67h-1.79v.66h1.84v.68ZM27.86,22.15c0,.52-.35.79-.55.87.17.07.32.18.39.28.11.16.13.31.13.6v.64h-.79v-.41c0-.2.02-.48-.13-.64-.11-.12-.29-.14-.57-.14h-.84v1.19h-.78v-3.28h1.8c.4,0,.7.01.95.16.25.15.4.36.4.73ZM29.12,24.55h-.8v-3.28h.8v3.28ZM38.4,24.55h-1.11l-1.49-2.46v2.46h-1.6l-.31-.73h-1.63l-.3.73h-.92c-.38,0-.86-.08-1.14-.36-.28-.28-.42-.66-.42-1.25,0-.49.09-.93.42-1.28.25-.26.65-.38,1.19-.38h.76v.7h-.74c-.29,0-.45.04-.6.19-.13.14-.23.4-.23.74s.07.61.22.77c.12.13.34.17.55.17h.35l1.11-2.58h1.18l1.33,3.1v-3.1h1.19l1.38,2.29v-2.29h.8v3.28h0ZM12.49,25.2h1.34l.3-.73h.68l.3.73h2.64v-.56l.24.56h1.37l.24-.57v.57h6.55v-1.2s.12,0,.12,0c.09,0,.11.01.11.16v1.04h3.39v-.28c.27.15.7.28,1.26.28h1.43l.31-.73h.68l.3.73h2.75v-.69l.42.69h2.2v-4.58h-2.18v.54l-.31-.54h-2.24v.54l-.28-.54h-3.02c-.51,0-.95.07-1.31.27v-.27h-2.08v.27c-.23-.2-.54-.27-.89-.27h-7.61l-.51,1.18-.52-1.18h-2.4v.54l-.26-.54h-2.05l-.95,2.18v2.4h0Z"/>
  <path class="cls-2" d="M40.4,27.62h-1.43c-.14,0-.24,0-.32.06-.08.05-.11.13-.11.24,0,.12.07.21.17.24.08.03.17.04.3.04h.43c.43.02.72.1.89.28.03.02.05.05.07.08M40.4,29.78c-.19.28-.56.42-1.06.42h-1.51v-.7h1.51c.15,0,.25-.02.32-.08.05-.05.09-.12.09-.21,0-.1-.04-.17-.1-.22-.06-.05-.14-.07-.28-.07-.74-.02-1.66.02-1.66-1.02,0-.48.3-.98,1.13-.98h1.56v-.65h-1.45c-.44,0-.76.1-.98.27v-.27h-2.15c-.34,0-.75.09-.94.27v-.27h-3.83v.27c-.31-.22-.82-.27-1.06-.27h-2.53v.27c-.24-.23-.78-.27-1.11-.27h-2.83l-.65.7-.61-.7h-4.23v4.58h4.15l.67-.71.63.71h2.56s0-1.07,0-1.07h.25c.34,0,.74,0,1.09-.16v1.24h2.11v-1.19h.1c.13,0,.14,0,.14.14v1.06h6.41c.41,0,.83-.1,1.07-.29v.29h2.03c.42,0,.84-.06,1.15-.21v-.85h0ZM37.27,28.47c.15.16.23.36.23.7,0,.71-.44,1.04-1.23,1.04h-1.53v-.7h1.52c.15,0,.25-.02.32-.08.05-.05.09-.12.09-.21,0-.1-.04-.17-.1-.22-.06-.05-.14-.07-.28-.07-.73-.02-1.65.02-1.65-1.02,0-.48.3-.98,1.12-.98h1.57v.7h-1.44c-.14,0-.24,0-.31.06-.09.05-.12.13-.12.24,0,.12.07.21.17.24.08.03.17.04.31.04h.42c.43.02.72.1.9.28ZM30.19,28.27c-.1.06-.23.07-.39.07h-.95v-.74h.97c.14,0,.28,0,.37.06.1.05.16.15.16.3s-.06.25-.16.32ZM30.67,28.67c.17.06.32.18.38.28.11.16.13.31.13.6v.65h-.79v-.41c0-.2.02-.49-.13-.64-.11-.12-.29-.15-.58-.15h-.84v1.2h-.79v-3.28h1.81c.4,0,.69.02.94.15.25.15.4.35.4.73,0,.52-.35.79-.56.87ZM31.66,26.92h2.62v.68h-1.84v.6h1.79v.67h-1.79v.65h1.84v.68h-2.62v-3.28ZM26.36,28.43h-1.01v-.84h1.02c.28,0,.48.12.48.4s-.19.43-.49.43ZM24.57,29.9l-1.2-1.34,1.2-1.29v2.63ZM21.46,29.51h-1.93v-.65h1.72v-.67h-1.72v-.6h1.97l.86.96-.9.96ZM27.7,28c0,.91-.68,1.1-1.37,1.1h-.98v1.1h-1.52l-.97-1.09-1,1.09h-3.11v-3.28h3.15l.96,1.08,1-1.08h2.51c.62,0,1.32.17,1.32,1.08Z"/>
</svg>