<?xml version="1.0" encoding="UTF-8"?>
<svg id="Layer_1" data-name="Layer 1" xmlns="http://www.w3.org/2000/svg" viewBox="0 0 50 50">
  <defs>
    <style>
      .cls-1 {
        fill: #d0d1d3;
      }

      .cls-1, .cls-2, .cls-3 {
        fill-rule: evenodd;
      }

      .cls-3 {
        fill: #234b8d;
      }
    </style>
  </defs>
  <path class="cls-1" d="M21.14,11.8c4.28,0,7.77,3.56,7.77,7.95s-3.5,7.93-7.77,7.93-7.8-3.56-7.8-7.93,3.5-7.95,7.8-7.95h0Z"/>
  <path class="cls-3" d="M21.25,11.67c-4.38,0-7.93,3.61-7.93,8.08s3.52,8.05,7.93,8.05v.02h9.87c4.43,0,7.93-3.61,7.93-8.08s-3.58-8.08-8.01-8.08c.06.02-9.72,0-9.78,0h0ZM21.25,11.99c4.23,0,7.6,3.46,7.6,7.75s-3.37,7.75-7.6,7.75-7.62-3.46-7.62-7.75,3.41-7.75,7.62-7.75h0ZM22.59,25.06v-10.62c2.33.6,4.04,2.72,4.04,5.31,0,2.59-1.71,4.73-4.04,5.31h0ZM19.93,14.41v10.67c-2.35-.58-4.04-2.72-4.04-5.33s1.68-4.75,4.04-5.33Z"/>
  <path class="cls-2" d="M13.3,32.64c.17-.02.3-.09.35-.22.02-.09.04-.17.09-.26l.45-1.68c.04-.17.06-.28.11-.39v-.11c0-.11-.09-.17-.24-.17l-.13-.02.04-.11h.99c.35,0,.65.02.84.09.26.09.45.24.58.45.13.22.19.45.19.73,0,.43-.15.82-.48,1.17-.3.3-.67.5-1.12.58-.22.04-.45.04-.69.04h-1.01l.02-.11h0ZM14.23,32.01l-.06.28s-.02.06-.02.11c0,.09.04.13.13.13.04.02.11.02.19.02.69,0,1.17-.3,1.45-.93.11-.26.15-.5.15-.76,0-.3-.09-.54-.24-.71-.17-.19-.39-.28-.69-.28-.13,0-.19.02-.26.04l-.04.02s-.02.02-.02.04l-.11.35-.47,1.68h0ZM17.68,32.29l-.04.06c-.06.06-.11.15-.17.22-.13.15-.26.24-.41.24-.17,0-.26-.11-.24-.3,0-.09.02-.24.06-.41l.3-1.04s.02-.09.02-.13c0-.06-.02-.11-.11-.13h-.17l.04-.09.73-.13-.45,1.6-.04.19s-.02.09-.02.11c-.02.04.02.06.06.06s.11-.02.17-.09c.04-.06.09-.11.13-.17l.04-.06.09.06h0ZM17.4,29.87c0-.17.09-.28.24-.28s.22.09.22.26c0,.06-.02.13-.06.19-.04.04-.11.06-.17.06-.15,0-.22-.09-.22-.24h0ZM18.14,32.14l.15-.54.13-.54c.02-.06.02-.11.02-.13,0-.09-.04-.13-.11-.13h-.17l.02-.09.76-.13-.26.91.06-.11.13-.19c.3-.41.58-.63.82-.6.17,0,.26.09.28.26v.11l-.02.15-.04.15-.26.97-.06.22v.06s.02.04.04.04c.06,0,.17-.06.28-.22l.11-.11.06.04-.09.15s-.09.11-.15.15c-.04.04-.09.09-.15.13-.04.02-.09.06-.13.06-.04.04-.09.04-.13.04-.15,0-.22-.09-.22-.24v-.15c.02-.13.04-.22.09-.3l.24-.86.02-.15c.02-.06.02-.11.02-.15v-.06s-.04-.06-.09-.06c-.11.02-.22.09-.35.22l-.11.13c-.11.15-.22.3-.3.45-.06.11-.11.22-.15.3l-.09.26-.17.56h-.37l.17-.6h0ZM20.77,31.97c-.02.06-.02.13-.02.19,0,.04,0,.09.02.13,0,.04.04.11.09.15.06.06.17.11.3.11.11,0,.17,0,.26-.04.06-.02.13-.06.24-.13l.11-.09.06-.04.06.06-.11.11c-.06.04-.13.09-.19.15-.22.15-.43.24-.63.24-.11,0-.22-.02-.28-.06-.24-.11-.37-.3-.37-.6,0-.37.15-.71.43-1.04.3-.35.63-.52.97-.52.28,0,.41.11.41.35,0,.26-.15.48-.48.67-.19.13-.45.22-.8.26h-.06l-.02.11h0ZM21.01,31.69c.37-.11.6-.32.73-.65.02-.04.02-.11.02-.15,0-.11-.04-.17-.15-.17-.15,0-.32.15-.5.41-.09.13-.15.24-.19.32-.02.06-.04.15-.09.28l.17-.04ZM22.48,32.23l.22-.76.11-.41s.02-.09.02-.13v-.06s-.09-.07-.15-.06h-.17l.04-.09.73-.13-.22.82.11-.17.17-.26c.19-.26.35-.39.5-.39s.24.09.24.24c0,.09-.02.15-.06.19-.04.04-.11.06-.15.06-.09,0-.13-.02-.17-.06l-.04-.09h-.04l-.04.02-.11.11c-.09.13-.19.26-.3.45-.04.09-.09.19-.15.32-.04.15-.11.28-.15.43l-.15.48h-.35l.13-.52h0ZM24.16,32.08l.02.09c0,.06.02.13.04.17.06.24.19.35.41.32.09,0,.17-.02.24-.09.04-.06.09-.15.09-.26,0-.04,0-.09-.02-.15-.04-.06-.09-.15-.13-.24l-.22-.32c-.06-.09-.11-.17-.13-.24-.04-.08-.06-.17-.06-.26,0-.06.02-.13.04-.19.02-.06.06-.11.11-.15.04-.06.1-.11.17-.13.09-.04.15-.04.24-.04s.15,0,.24.02c.11.02.17.04.22.04s.09-.02.11-.04l.02-.02h.06l-.11.65h-.09v-.11c-.04-.26-.19-.41-.41-.41-.15,0-.24.09-.24.26,0,.11.04.24.15.41l.22.3c.06.09.11.15.13.22.04.09.06.17.06.26,0,.19-.09.35-.22.48-.13.11-.3.17-.5.17-.06,0-.15,0-.22-.02-.13-.04-.22-.04-.24-.04h-.04l-.02.02-.04.04h-.09l.11-.76.09.02h0ZM29.86,32.1l-.11.13c-.35.39-.71.58-1.14.58-.35,0-.65-.13-.89-.37-.11-.11-.17-.24-.22-.37-.07-.16-.11-.34-.11-.52,0-.19.04-.39.11-.6.13-.37.37-.67.69-.93.32-.26.69-.39,1.08-.41.17.02.39.04.63.11.06,0,.11.02.15.02.05,0,.09-.02.11-.06l.02-.04.11.02-.19.93h-.11v-.09c-.02-.09-.02-.15-.04-.24-.02-.09-.06-.15-.13-.22-.13-.15-.3-.22-.56-.22-.3,0-.56.13-.8.39-.21.23-.35.5-.43.8-.06.22-.11.43-.09.63-.02.24.04.45.19.63.13.19.32.28.58.28.32,0,.65-.15.97-.48l.06-.06.11.09h0ZM30.86,30.11c.02-.06.04-.13.04-.17l-.02-.04s-.06-.06-.15-.06h-.13l.02-.09.76-.13-.71,2.63c-.04.11-.04.19-.04.24v.02s.02.04.06.04c.02,0,.09-.02.17-.11l.11-.11.09-.11.04-.04.09.04-.06.11c-.06.06-.11.13-.17.19-.15.19-.3.28-.45.28-.06,0-.13-.02-.19-.06-.04-.04-.06-.11-.06-.17,0-.04,0-.11.02-.15l.09-.32.52-1.99h0ZM32.59,32.06c-.13.19-.24.35-.37.48-.17.19-.35.28-.52.28-.06,0-.13-.02-.17-.09-.04-.06-.07-.14-.06-.22,0-.06,0-.13.02-.22l.06-.22.26-1.01s.02-.09.02-.13c0-.09-.02-.13-.11-.13h-.17l.04-.09.73-.13-.45,1.66c-.02.11-.04.17-.04.22,0,.06.02.09.09.09s.17-.06.28-.19l.17-.22.13-.22c.06-.09.13-.19.19-.32.09-.13.15-.28.22-.43.04-.13.09-.24.13-.37l.04-.17h.37l-.06.26-.15.54c-.06.24-.13.43-.17.6l-.06.26c-.02.09-.02.15-.02.19s.02.06.04.06c.04,0,.11-.04.17-.13l.13-.15.06-.06.09.06-.06.06-.15.22s-.11.11-.15.15c-.09.06-.17.11-.26.11-.17,0-.26-.09-.26-.24,0-.06,0-.11.02-.19l.04-.17.11-.41-.17.26h0ZM34.46,31.15c.06-.11.13-.19.19-.26.19-.22.41-.3.63-.3.06,0,.13,0,.22.04.22.09.3.28.32.58-.02.39-.17.76-.5,1.08-.19.19-.39.35-.58.43-.13.06-.28.09-.43.09-.24,0-.43-.06-.56-.19l-.02-.04s-.02-.02-.02-.02v-.06l.04-.13.6-2.22c.02-.09.04-.15.04-.19v-.04s-.09-.06-.17-.06h-.13l.02-.09.76-.13-.41,1.53h0ZM34.12,32.49c0,.13.06.19.24.17.19,0,.37-.09.54-.28s.28-.39.39-.63c.06-.19.11-.39.11-.56,0-.24-.11-.35-.3-.37-.15,0-.3.11-.45.3-.13.14-.22.31-.28.5l-.11.3c-.09.26-.13.45-.13.56h0ZM13.41,37.95l.06-.02c.11-.02.17-.06.19-.11.04-.04.06-.09.06-.13l.09-.3.54-1.9.02-.11s.02-.06.02-.09c0-.11-.09-.15-.22-.17l-.11-.02.02-.11h1.17l-.02.11-.09.02c-.13.02-.22.09-.26.19-.02.09-.06.19-.09.3l-.54,1.9c-.02.11-.04.17-.04.22,0,.11.06.17.24.19l.09.02-.02.11h-1.17l.04-.11ZM15.11,37.45l.15-.54.15-.54c0-.06,0-.11.02-.15-.02-.06-.04-.11-.13-.11l-.11-.02h-.06l.04-.09.73-.13-.26.93.06-.11.13-.19c.32-.41.58-.63.82-.63.17.02.26.11.28.28v.11l-.02.13-.04.17-.26.97-.06.22v.06s.04.04.06.04c.06,0,.15-.06.26-.22l.11-.13.09.06-.11.13c-.04.06-.09.13-.13.17s-.11.09-.15.13l-.13.06c-.06.02-.11.04-.15.04-.13,0-.22-.09-.22-.24,0-.06,0-.11.02-.17.02-.11.04-.19.06-.28l.24-.86.02-.15c.02-.06.02-.11.02-.15v-.06s-.04-.06-.09-.06c-.09,0-.19.06-.32.22l-.13.13c-.11.13-.19.28-.3.45-.06.11-.11.19-.13.28l-.11.26-.17.58h-.37l.17-.6h0ZM17.4,36.12l.02-.11c.17-.04.3-.11.41-.22.08-.05.15-.11.22-.17l.15-.19h.09l-.13.52h.37l-.04.17h-.37l-.41,1.47-.02.11-.02.09s0,.04.02.06l.02.02c.06,0,.13-.06.24-.19.04-.04.06-.09.11-.13l.02-.04.09.04-.04.09-.15.17c-.04.06-.09.13-.13.17-.11.09-.22.15-.35.15-.15,0-.22-.09-.22-.24,0-.04,0-.09.02-.15l.09-.28.37-1.34h-.35s0,0,0,0ZM19.02,37.28c-.02.06-.04.13-.04.19,0,.04.02.09.02.13.02.04.04.09.11.13.06.09.17.13.3.13.09,0,.17-.02.24-.04.06-.04.15-.09.24-.13l.13-.11.04-.02.09.06-.11.09c-.06.06-.13.11-.19.15-.22.17-.43.26-.65.26-.1,0-.19-.02-.28-.06-.24-.11-.35-.3-.35-.6,0-.37.15-.71.41-1.04.32-.35.65-.54.99-.54.26.02.41.13.41.37-.02.26-.17.47-.48.67-.22.11-.48.19-.8.26h-.06l-.02.11h0ZM19.24,36.98c.37-.09.63-.3.73-.63.02-.06.04-.11.04-.15,0-.13-.04-.17-.15-.17-.15,0-.32.15-.52.41-.06.11-.13.22-.17.32-.02.06-.06.15-.09.26l.15-.04h0ZM20.73,37.54l.22-.76.11-.41v-.19s-.04-.06-.13-.06l-.11-.02h-.06l.02-.09.76-.13-.24.84.13-.17.17-.26c.17-.26.35-.41.5-.41s.22.09.24.26c-.02.09-.02.15-.06.17-.04.06-.11.09-.17.09s-.13-.02-.15-.09l-.06-.06h-.04l-.02.02-.11.11c-.11.11-.19.26-.3.45-.04.09-.11.19-.15.32-.06.13-.11.28-.15.41l-.15.5h-.37l.15-.52h0ZM22.41,37.45l.15-.54.13-.54c0-.06.02-.11.02-.15,0-.06-.04-.11-.11-.11l-.11-.02h-.06l.02-.09.76-.13-.28.93.09-.11.13-.19c.3-.41.58-.63.8-.63.17.02.28.11.3.28v.04l-.02.06-.02.13-.02.17-.28.97-.04.22v.06s.02.04.04.04c.06,0,.15-.06.28-.22l.09-.13.09.06-.11.13c-.04.06-.09.13-.13.17-.04.04-.11.09-.15.13l-.13.06s-.11.04-.15.04c-.13,0-.19-.09-.22-.24,0-.06,0-.11.02-.17.02-.11.04-.19.06-.28l.24-.86.04-.15c0-.06.02-.11.02-.15l-.02-.06s-.04-.06-.09-.06c-.09,0-.19.06-.32.22l-.13.13c-.11.13-.19.28-.3.45-.06.11-.11.19-.13.28l-.09.26-.19.58h-.35l.17-.6ZM25.8,37.54c-.15.19-.28.32-.37.39-.15.13-.32.19-.48.19s-.26-.06-.35-.19c-.09-.11-.13-.24-.13-.39s.04-.32.11-.52c.15-.35.35-.63.6-.84.11-.09.22-.17.35-.22.11-.06.22-.09.32-.09s.22.04.3.13l.04.09.04-.15h.35l-.04.17-.13.48-.17.65-.09.35c-.02.09-.04.15-.04.22,0,.02.02.02.02.04l.02.02h.02s.15-.09.28-.24l.06-.11.06.09-.06.11-.15.15c-.17.17-.3.26-.41.26-.15-.02-.22-.09-.22-.22,0-.02.02-.09.02-.15l.06-.3-.04.09h0ZM24.92,37.52c0,.22.09.35.26.35.19,0,.41-.17.6-.5.06-.11.11-.22.17-.37.04-.11.09-.24.11-.37.04-.13.06-.24.06-.32s-.02-.15-.06-.19c-.06-.06-.11-.09-.19-.09-.11,0-.24.06-.37.17-.11.09-.2.2-.26.32-.06.13-.13.24-.17.37-.11.24-.15.43-.15.63ZM26.95,36.12l.02-.11c.17-.04.3-.11.41-.22.06-.04.13-.11.22-.17l.15-.19h.09l-.13.52h.37l-.04.17h-.37l-.41,1.47-.02.11-.02.09s0,.04.02.06l.02.02s.13-.06.24-.19c.04-.04.06-.09.11-.13l.02-.04.09.04-.06.09-.13.17c-.04.06-.09.13-.13.17-.11.09-.22.15-.35.15-.15,0-.22-.09-.22-.24,0-.04,0-.09.02-.15l.09-.28.37-1.34h-.35s0,0,0,0ZM28.98,37.61l-.04.04c-.05.09-.1.17-.17.24-.13.15-.26.24-.41.24-.17,0-.24-.11-.24-.32,0-.09.02-.22.09-.41l.3-1.01s.02-.09.02-.13c0-.09-.04-.13-.13-.13l-.11-.02h-.06l.04-.09.76-.13-.48,1.62-.04.17c-.02.06-.02.09-.02.13s.02.06.06.06c.06,0,.11-.02.17-.09.04-.06.09-.13.15-.19l.02-.04.09.06h0ZM28.7,35.17c0-.17.09-.26.24-.26s.24.09.24.26c0,.06-.02.13-.06.17-.04.06-.11.09-.19.09-.13,0-.22-.09-.22-.26ZM29.32,37.41c0-.26.06-.5.22-.71.13-.24.28-.41.48-.56.22-.17.45-.26.69-.26.19,0,.37.09.5.22.13.13.17.28.17.5,0,.26-.06.5-.22.73-.13.22-.28.41-.48.54-.22.17-.43.26-.67.26-.12,0-.24-.02-.35-.06-.24-.11-.35-.32-.35-.65ZM29.74,37.52c0,.13.02.24.09.32.06.09.15.13.28.13.22,0,.41-.15.56-.48.19-.35.3-.69.3-1.01,0-.3-.11-.45-.32-.45-.24,0-.48.19-.67.6-.15.32-.24.63-.24.89h0ZM31.7,37.45l.15-.54.13-.54c.02-.06.02-.11.02-.15,0-.06-.04-.11-.11-.11l-.11-.02h-.06l.02-.09.76-.13-.26.93.06-.11.13-.19c.3-.41.58-.63.82-.63.17.02.26.11.28.28v.11l-.02.13-.04.17-.26.97-.06.22v.06s.02.04.06.04.15-.06.26-.22l.11-.13.06.06-.09.13c-.04.06-.09.13-.15.17-.04.04-.09.09-.15.13l-.13.06s-.09.04-.13.04c-.15,0-.22-.09-.22-.24v-.17c.02-.11.04-.19.09-.28l.24-.86.02-.15c.02-.06.02-.11.02-.15v-.06s-.04-.06-.09-.06c-.11,0-.22.06-.35.22l-.11.13c-.11.13-.22.28-.3.45-.05.09-.1.19-.15.28l-.09.26-.17.58h-.37l.17-.6h0ZM35.09,37.54c-.15.19-.26.32-.35.39-.17.13-.32.19-.5.19-.15,0-.26-.06-.35-.19-.06-.11-.11-.24-.11-.39s.02-.32.11-.52c.13-.35.32-.63.6-.84.11-.09.22-.17.32-.22.11-.06.22-.09.32-.09.13,0,.22.04.3.13l.06.09.04-.15h.35l-.06.17-.13.48-.17.65-.09.35c-.02.09-.02.15-.02.22v.04l.02.02h.02c.06,0,.15-.09.28-.24l.06-.11.09.09-.09.11-.13.15c-.17.17-.32.26-.43.26-.13-.02-.19-.09-.19-.22,0-.02,0-.09.02-.15l.06-.3-.06.09h0ZM34.21,37.52c0,.22.11.35.28.35.19,0,.39-.17.58-.5.06-.11.13-.22.17-.37.04-.11.09-.24.13-.37.02-.13.04-.24.04-.32s-.02-.15-.06-.19c-.04-.06-.11-.09-.17-.09-.13,0-.26.06-.39.17-.09.09-.17.19-.26.32-.06.13-.13.24-.17.37-.11.24-.15.43-.15.63h0ZM36.8,35.42c.02-.09.04-.13.04-.17v-.04s-.09-.06-.17-.06h-.13l.04-.09.73-.13-.71,2.63c-.02.11-.04.19-.04.22l.02.04s.02.04.04.04c.04,0,.09-.04.17-.11l.11-.13.09-.09.04-.06.09.06-.06.09c-.04.09-.11.15-.15.22-.17.17-.32.28-.45.28-.09,0-.15-.02-.19-.06-.06-.04-.09-.11-.09-.17s.02-.11.02-.17l.09-.3.52-1.99h0ZM38.07,34.82c.06,0,.11.02.17.04.04.02.09.06.11.11.04.06.04.11.04.17s0,.11-.04.15c-.02.06-.06.1-.11.13-.06.02-.11.04-.17.04s-.11-.02-.15-.04c-.06-.02-.11-.07-.13-.13-.02-.04-.04-.09-.04-.15s.02-.11.04-.17c.02-.04.06-.09.13-.11.04-.04.11-.04.15-.04ZM38.07,34.88s-.09,0-.13.02c-.04.02-.06.06-.09.11-.02.04-.04.09-.04.13s.02.09.04.13c.02.04.04.06.09.09.04.02.09.04.13.04s.09-.02.13-.04c.04-.02.09-.04.11-.09.02-.04.02-.09.02-.13s0-.09-.02-.13c-.02-.05-.06-.08-.11-.11-.04-.02-.09-.02-.13-.02ZM37.92,35.32v-.35h.19s.04,0,.04.02c.02,0,.02.02.04.02v.04s0,.06-.02.06c-.02.02-.04.04-.06.04,0,0,.02,0,.02.02,0,0,.02,0,.02.02,0,0,.02.02.02.04l.04.06h-.09l-.02-.06s-.04-.04-.04-.06c-.02,0-.04-.02-.06-.02v.15h-.09s0,0,0,0ZM38.01,35.12h.09s.02-.02.02-.02c.02,0,.02-.02.02-.02t-.02-.04h-.11v.09h0Z"/>
</svg>