<?xml version="1.0" encoding="UTF-8"?>
<svg id="Layer_1" data-name="Layer 1" xmlns="http://www.w3.org/2000/svg" viewBox="0 0 50 50">
  <defs>
    <style>
      .cls-1 {
        fill: #4376b8;
      }

      .cls-1, .cls-2, .cls-3, .cls-4 {
        fill-rule: evenodd;
      }

      .cls-2 {
        fill: #c33114;
      }

      .cls-3 {
        fill: #a1bf34;
      }

      .cls-4 {
        fill: #eec52e;
      }
    </style>
  </defs>
  <path class="cls-3" d="M27.51,6.44c.43.02.86-.12,1.28,0,.31-.03.59.12.89.14.26.05.48.2.74.24.14.08.29.16.45.2.46.34.97.64,1.37,1.06.17.12.34.26.44.45.27.25.49.55.71.84.12.17.26.32.35.51.14.3.38.55.48.87.04.04.08.09.12.13,0,.13.08.24.15.34.06.23.22.42.27.66.13.29.28.59.31.91.02.01.06.04.09.06.03.09.05.19.06.29.11.22.18.47.19.71.03.03.06.06.09.09,0,.11,0,.23.05.33,0,.09,0,.19.01.28-.02,0-.07-.01-.09-.01-.03-.14-.06-.27-.08-.41-.05-.11-.12-.2-.17-.31-.03-.27-.23-.48-.28-.75-.03-.11-.11-.21-.17-.3-.05-.27-.26-.46-.35-.71-.35-.59-.73-1.18-1.19-1.69-.28-.32-.6-.6-.89-.9-.09-.1-.24-.13-.32-.24-.17-.17-.4-.25-.57-.42-.18-.05-.32-.2-.5-.26-.03,0-.08,0-.11-.01-.04-.05-.09-.09-.13-.14-.28,0-.48-.27-.77-.26-.08-.04-.17-.07-.25-.11-.08-.03-.16-.04-.24-.05-.12-.03-.24-.03-.36-.07-.05,0-.1-.01-.15-.02-.09-.05-.2-.04-.3-.05-.19-.08-.4-.03-.59-.04-.18.01-.38-.04-.54.05-.22,0-.45.04-.67-.03-.13-.03-.26-.01-.38-.06-.1,0-.2-.01-.3-.05-.23-.01-.46-.08-.7-.07-.08-.06-.18-.04-.28-.04,0-.06,0-.13,0-.19.17,0,.28-.15.4-.25.03,0,.1,0,.13,0,.05-.05.1-.09.14-.14.11-.02.22-.05.32-.1.23-.12.48-.19.72-.3.2-.06.41-.07.62-.07,0-.02,0-.07,0-.1Z"/>
  <path class="cls-2" d="M23.89,8.05c.17,0,.34,0,.5-.05.27-.02.54-.01.8,0,.21.1.47,0,.69.09.07.01.14.01.2.06.1,0,.2,0,.3.04.08.03.17.06.26.08.14.06.28.12.43.14v.04c.08.01.15.04.23.07.04.03.09.06.14.08.13.04.27.08.35.19.05.02.09.04.14.06.04.02.08.05.12.07.07.05.14.09.22.13.02.02.08.05.1.07v.03s.08.03.11.04c.06.05.13.1.19.16.08.06.16.12.25.18,0,.02,0,.06-.01.08.03,0,.1,0,.13,0,.08.1.16.2.27.28.16.12.28.28.44.4,0,.03,0,.09.01.12.02,0,.06,0,.08,0,.08.16.26.25.33.42.02,0,.06,0,.07-.01,0,.03,0,.09.01.13.05.04.09.08.14.13.05.1.14.17.18.27.04.04.08.08.13.13.02.05.04.09.06.14.07.08.14.16.18.26.06.09.12.19.17.28.01.03.03.08.05.1.04.05.07.1.1.15.05.06.08.14.09.22h.03c.04.14.14.24.18.38.04.07.08.15.13.23.03.06.06.12.07.18.03.04.05.09.08.13.01.06.04.12.07.17.04.1.05.21.14.28,0,.03,0,.09,0,.13h.05c.03.11.06.22.09.32.02.02.05.07.06.09,0,.05.02.11.04.16.08.14.09.31.17.45,0,.01,0,.04,0,.06.06.1.08.23.11.35.02.05.03.1.05.15.02.07.04.13.05.2.08.21.11.43.15.65.05.07.04.17.05.25.01.03.03.09.04.12.16.08.35.04.52.06.11.06.23.04.35.05.05.05.13.04.2.04.18,0,.37,0,.55.01.14.07.31,0,.45.08.25.03.51-.04.74.05.12,0,.24,0,.35.05.26.03.53-.04.77.06.04.03.08.04.13.04.3,0,.6,0,.9.02l.04.04c.38.16.81.04,1.21.13.31.07.63.05.94.08.33.07.67.03,1,.07.32.05.66.13.99.07h.01c.1,0,.2.01.3,0-.03.03-.06.06-.09.09.43,0,.86.01,1.28.08-.3.05-.6.02-.9.03v.05c-.28-.01-.56,0-.83,0-.09-.05-.2-.05-.29,0-.22,0-.44,0-.65,0l-.04-.02s-.08-.02-.11-.02c-2.3,0-4.6,0-6.89,0-.33,0-.67.01-1-.01-.1-.28-.23-.56-.27-.86-.04-.05-.07-.11-.11-.16-.03-.05-.06-.1-.09-.14,0-.03,0-.09,0-.13-.03-.03-.06-.07-.09-.11,0-.1-.05-.18-.1-.27-.03-.1-.07-.19-.12-.27-.06-.15-.12-.3-.2-.44-.01-.03-.03-.08-.04-.11-.04-.09-.07-.17-.1-.26h-.03c-.02-.05-.04-.1-.06-.16-.05-.11-.13-.22-.15-.35h-.04s0-.05,0-.05h-.06s0-.1,0-.13c-.06-.05-.1-.11-.14-.18-.02-.04-.04-.09-.06-.13-.08-.11-.15-.22-.2-.34-.03-.04-.05-.08-.08-.12-.02-.04-.05-.09-.07-.13-.03-.05-.07-.1-.1-.15-.1-.15-.18-.31-.3-.45-.07-.11-.15-.22-.23-.33-.05-.07-.1-.13-.15-.2-.05-.07-.1-.13-.15-.2-.18-.23-.38-.46-.59-.67-.07-.08-.11-.18-.21-.23-.17-.2-.39-.34-.58-.52-.25-.2-.5-.4-.77-.57-.05-.05-.12-.08-.19-.11-.04-.05-.09-.09-.16-.09-.02-.01-.05-.04-.07-.05v-.03c-.05,0-.11-.02-.16-.05-.05-.03-.11-.05-.16-.08-.03-.01-.09-.03-.12-.04v-.04c-.08,0-.15-.02-.22-.05v-.04c-.06,0-.14,0-.2-.05-.25-.12-.55-.13-.81-.25-.12-.02-.24-.01-.36-.02-.14-.05-.3-.03-.45-.09-.09.01-.18.04-.27.06v-.06c-.11,0-.2,0-.3,0v.05c-.32-.03-.62.06-.92.06-.05.03-.1.05-.16.05-.08.03-.17.04-.25.05-.06.04-.13.04-.2.05-.08.04-.16.04-.25.05-.09.05-.2.09-.3.1-.05.02-.1.04-.15.05-.03,0-.08.02-.11.03-.83.22-1.59.66-2.22,1.24-.17.23-.45.37-.56.63-.08.13-.2.24-.29.36-.05.07-.1.14-.15.22h-.03c-.03.11-.12.18-.17.28-.03.05-.06.11-.13.13-.02.08-.07.15-.12.22-.06.08-.11.16-.15.25-.06.08-.13.15-.16.25-.09.04-.09.15-.13.23h-.04c-.02.15-.17.23-.22.38-.04.05-.07.1-.1.15-.03.04-.05.08-.08.12-.03.05-.06.1-.1.15-.03.11-.11.18-.17.27-.03.04-.05.09-.08.13-.06.08-.11.17-.16.26,0-.11-.01-.21-.01-.32h.05c0-.1.03-.2.06-.3h.04c0-.08.01-.15.04-.22.02-.05.04-.1.06-.14.01-.05.03-.1.05-.15.07-.11.08-.24.15-.35.02-.18.18-.32.16-.51.01.03.03.07.04.1,0-.09.03-.18.06-.27h.04c.01-.07.04-.13.06-.19.04-.07.08-.14.1-.21h.03c0-.15.14-.25.17-.39h.03c.03-.08.08-.16.12-.24l.03-.03c.16-.17.26-.39.42-.57.36-.53.82-.99,1.31-1.41.72-.61,1.58-1.02,2.46-1.34.31-.13.64-.19.96-.29.1-.03.2-.03.3-.04.03-.03.06-.06.08-.09.07,0,.13,0,.19-.04h0ZM7.57,16.84c0,.07.04.11.12.11,0,.02,0,.06,0,.08.08,0,.17.03.25.06.04.03.08.06.12.09.03,0,.09,0,.11,0,.19.07.41.09.61.1v.04c.44.06.87.17,1.31.15v.05c.07,0,.15,0,.23,0,.24.09.51-.01.74.09.18.01.37,0,.55.02.23.07.48,0,.71.05.17.06.36.03.54.04.28.07.58.02.87.04.43-.02.85.07,1.27.06,4.73.01,9.46,0,14.19,0,.09,0,.18.02.26.04.04-.03.08-.06.12-.09l-.03-.05-.08-.02v-.03c-.06-.01-.12-.03-.17-.05-.08,0-.15-.01-.23-.01-.02-.02-.05-.07-.07-.09-.09,0-.19,0-.28,0v-.05c-.08,0-.16-.01-.23-.05-.13-.01-.25-.01-.38,0,0-.02.01-.05.02-.06-.02,0-.06,0-.08.01-.14-.09-.32-.03-.47-.05v-.05c-.15,0-.29-.01-.42-.04-.19-.02-.38-.01-.58-.01v-.04c-.06,0-.12-.01-.18-.04-.16,0-.33,0-.49-.01-.15,0-.31,0-.46-.03-.33-.08-.66-.06-.99-.06-.15,0-.32.02-.43-.09-.24-.01-.48,0-.72-.01-.45-.01-.91.04-1.36-.07-1.53-.03-3.06-.02-4.59-.02-3.21,0-6.43,0-9.64,0-.03,0-.1,0-.14,0h0ZM18.02,40.62c3.21-.01,6.41,0,9.62,0,.52.08,1.05.03,1.57.04v.05c1.06,0,2.12,0,3.17.01.21.05.44.04.65,0,.27.1.6-.05.86.1l.04-.06s.12.03.16.04c.07-.04.13-.04.2,0,.04,0,.13,0,.17.01v-.06c.12.01.23.11.33.01.13.02.27.05.4.05.7,0,1.4,0,2.1,0,.35,0,.7-.02,1.05.03.78,0,1.57.02,2.35.01.74.12,1.5-.02,2.23.1,0,.02,0,.07-.01.09-.07,0-.14.03-.19.08-.08.03-.17.02-.24.08-.11,0-.22.02-.33.05-.07,0-.15,0-.22.04-.05.01-.1.03-.15.05-.16.02-.34-.02-.49.05-.12,0-.24,0-.35.04-.33.01-.65.02-.98.02,0,.02,0,.07,0,.09-.33,0-.66,0-.99.02l-.04.05c-.06-.08-.13-.08-.2-.02-.18,0-.37,0-.55.02-.06.02-.13.03-.2.03-.63,0-1.25.01-1.88,0-.34.01-.69-.03-1.03.03-.2.03-.4.02-.59.02-2.66,0-5.33,0-7.99,0-.23.02-.46-.03-.7-.06-.93,0-1.87,0-2.8-.02-.5,0-1,.01-1.5-.02-.5-.02-1,.03-1.5-.05-1.36,0-2.73-.02-4.1-.01-.48,0-.97,0-1.45,0l-.04-.04c-.09-.06-.2-.05-.31-.05-.86.01-1.71-.02-2.57,0-.69,0-1.38,0-2.08,0-.13,0-.26-.03-.38-.05,0-.02,0-.07.01-.09.07-.03.15-.06.23-.08.11-.03.22-.03.33-.03,0-.01-.01-.05-.01-.06.03,0,.1,0,.14,0,.24-.05.49-.09.75-.11.1-.03.2-.04.3-.03.27.03.53-.06.8-.06.17,0,.34,0,.51,0,.04-.03.07-.06.11-.09.55-.01,1.1-.08,1.65-.05v-.06s.1.04.13.05c.32-.09.66-.01.99-.08.38,0,.75-.01,1.13,0v-.05c.59,0,1.18-.01,1.77-.02.03,0,.09-.02.12-.03Z"/>
  <path class="cls-4" d="M22.85,9.99c.3-.07.59-.18.89-.2.29,0,.58,0,.88,0,0,.02,0,.07,0,.1-.34.24-.61.56-.9.85-.24.25-.48.48-.71.74-.27.38-.61.72-.89,1.09-.38.53-.76,1.05-1.08,1.62-.31.49-.51,1.03-.75,1.55-.1.33-.23.64-.27.98.42.12.86.05,1.28.07.38.05.76.01,1.14.07.45.04.9,0,1.36.02-.17.01-.34-.01-.5.05-.45-.01-.91.04-1.36-.07-1.53-.03-3.06-.02-4.59-.02-3.21,0-6.43,0-9.64,0l-.06-.04c3.95-.02,7.9,0,11.84-.01.05-.02.11-.05.16-.07-.03-.28.09-.53.12-.79.05-.13.09-.27.09-.41.11-.2.14-.43.2-.65.14-.38.25-.77.4-1.14.04-.08.08-.16.1-.25.08-.27.2-.52.34-.76.12-.21.17-.44.34-.62,0-.03.02-.08.03-.11.35-.61.72-1.21,1.15-1.77.1-.12.25-.22.42-.22Z"/>
  <path class="cls-1" d="M8.39,19.18c1.32,0,2.64,0,3.96,0,.15.09.34.02.5.05.21.05.43.02.64.08.21.03.4.13.61.17.19.11.39.2.56.35.27.26.55.54.69.91.13.34.21.7.26,1.06-.01.32.06.63,0,.95.02.47,0,.97-.24,1.4-.15.21-.36.38-.58.51-.08.03-.17.05-.26.08-.09.05-.19.08-.29.09-.04.03-.08.06-.11.09-.02,0-.08.01-.1.02.07.09.18.06.28.07.02.03.04.06.06.09.08,0,.16,0,.24,0,0,.02,0,.07,0,.09.06,0,.12,0,.18,0,0,.1.1.1.18.11,0,.02,0,.06,0,.08.06,0,.11,0,.17.01.18.17.34.35.46.57.02.09.05.18.1.25,0,.08.01.16.02.25.1.15.1.33.12.5.01.44,0,.87,0,1.31.04-.06.09-.11.14-.16.01-.17,0-.33.02-.5.01-.17.09-.33.09-.5,0-.13,0-.27.02-.4.11-.34.07-.71.18-1.05.01-.25,0-.5.09-.73.03-.29.02-.59.11-.87.01-.18,0-.36.03-.53.1-.54.17-1.07.24-1.61.07-.28.04-.58.12-.86.02-.47.14-.92.17-1.39.07-.17.02-.36.1-.53,1.56,0,3.12,0,4.68,0,.02.2.04.41.09.61.02.17.04.34.07.51.06.24.05.5.1.74.06.21.06.43.1.65.06.22.06.46.1.69.07.23.06.47.1.7.07.22.06.46.1.69.1.43.13.87.2,1.3.05.21.07.44.1.65.08.3.06.62.13.92,0,.06.01.13.01.2-.05-.05-.1-.1-.13-.16-.19-.36-.41-.71-.6-1.07-.59,0-1.18,0-1.77,0,0,.05,0,.11,0,.16.09.08.12.2.18.3.02.07,0,.17.09.19.08.16.14.32.15.5,0-.04.02-.11.02-.15.06.14.12.27.2.4,0,.21-.16.36-.26.53-.16.28-.33.55-.51.81-.02,0-.05,0-.06,0-.07-.11-.16-.22-.23-.34-.04-.11-.15-.04-.21-.01.03.25.26.4.35.62.16.04.33.02.49.02.48,0,.97,0,1.45,0,.08.01.13-.06.16-.12.21-.41.45-.82.68-1.22.02,0,.06-.02.08-.02.05.43.1.86.19,1.28.05.22.06.44.08.67.07.21.07.44.11.66.06.22.09.45.09.69.03.07.06.13.08.2,0,.13,0,.25.03.37.05-.22.03-.45.06-.68,0-2.85,0-5.7,0-8.54,0-.92-.01-1.85,0-2.77.89,0,1.78,0,2.67,0,.03.07.07.14.12.21,0,.06,0,.11.01.17.08.13.11.28.11.42.11.08.09.22.09.34.02,0,.06,0,.08,0,0,.12,0,.24.09.33.02.12.03.25.1.35,0,.1.03.21.1.29,0,.19.14.34.13.54.05.06.08.14.1.21.14.42.28.85.4,1.27.03.04.06.09.08.13,0,.09.01.18.02.27.1.18.21.37.18.58,0-.03.01-.1.02-.14.03.05.07.1.11.14,0,.06,0,.13.06.17.02-1.74,0-3.48,0-5.22.03-.02.08-.05.11-.07.83,0,1.67,0,2.5,0,.04.02.09.04.13.06-.01,4.14,0,8.28,0,12.42-.82,0-1.64,0-2.47,0-.14,0-.27,0-.41-.02-.05-.13-.07-.26-.09-.39-.1-.14-.06-.33-.17-.46-.02-.23-.09-.45-.2-.65,0-.13-.04-.25-.1-.36,0-.17-.1-.32-.13-.49-.11-.29-.16-.59-.28-.88-.07-.29-.17-.58-.25-.87-.08-.15-.05-.34-.15-.49-.02-.18-.14-.33-.13-.51-.02-.02-.07-.06-.09-.08,0-.04.01-.11.02-.15-.03,0-.08,0-.11,0,0,1.78,0,3.56,0,5.34-2.01,0-4.02,0-6.04,0,0-.34-.07-.68-.06-1.02-.07-.39-.04-.8-.14-1.19-.37,0-.74,0-1.11,0,0,.16.02.33-.04.48,0,.34-.07.67-.07,1-.04.16-.02.34-.08.5,0,.09-.02.17-.02.26-1.09,0-2.17,0-3.26,0-.04-.04-.08-.09-.12-.13.07-.25.09-.51.15-.76-.05,0-.1,0-.15,0-.11.16-.25.3-.4.42-.24.17-.53.24-.81.32-.26.02-.52,0-.78.02-.12.02-.22.09-.35.08-1.59,0-3.17,0-4.76,0-.01-.03-.04-.09-.06-.13,0-2.48,0-4.96,0-7.44,0-.07,0-.14.02-.2-.04-.18-.02-.36-.02-.55,0-1.3,0-2.6,0-3.9,0-.09.03-.18.06-.27h0ZM11.58,21.33c0,.92,0,1.83,0,2.75.21,0,.42.02.63,0,.16-.04.29-.17.35-.32.1-.57.08-1.16.07-1.74-.04-.24-.15-.46-.33-.62-.11,0-.22,0-.33-.04-.13,0-.25-.01-.38-.01h0ZM18.91,22.98c.01.15.09.28.18.4.18.33.37.65.57.97.05.11.15.21.13.34.02.2-.18.32-.23.5-.18.24-.28.55-.49.77.04.03.08.06.13.05.22,0,.44,0,.66,0,.16-.19.27-.41.43-.6.3,0,.61.01.91,0,.18-.22.3-.49.47-.72,0-.03,0-.09,0-.12-.3-.51-.55-1.05-.81-1.58-.65-.01-1.29,0-1.94,0h0ZM17.58,25.53s0,.08,0,.11c.11.2.22.4.31.61.07.12.15.23.2.36.07.13.13.26.22.38.02.05.04.11.06.16-.03.06-.05.12-.08.19-.24.36-.43.76-.67,1.12-.05.06-.04.14-.05.21.58,0,1.15,0,1.73,0,.22,0,.18-.3.36-.38,0-.05.01-.09.02-.14.22-.33.39-.7.59-1.04-.12-.1-.14-.26-.22-.39-.1-.18-.17-.37-.29-.54-.28-.02-.57.04-.85-.03-.13-.21-.24-.43-.4-.62-.31,0-.62,0-.92,0h0ZM11.58,26.25c0,1.09,0,2.18,0,3.27.14,0,.28.01.41-.03.16-.06.34-.06.46-.19.14-.13.13-.33.16-.5.03-.7.01-1.4,0-2.1,0-.22-.1-.43-.26-.56-.22-.03-.43-.09-.66-.07-.12-.03-.13.1-.12.18h0ZM31.73,19.19c1.07-.01,2.13,0,3.2,0,.12,0,.23.04.35.05.28.01.57-.02.85.03.2.04.41-.02.6.06.18.02.37.02.54.1.07.03.15.05.22.07.08.04.15.09.24.12.49.31.88.82.98,1.4.02.04.05.09.08.14.04.23.07.47.11.7.01.48,0,.96,0,1.45,0,.13,0,.27-.04.4-.02.07-.03.13-.05.2-.04.2-.08.42-.19.59-.08.15-.21.26-.35.35-.05.06-.13.07-.2.09-.27.11-.55.2-.84.2.07.03.15.05.22.09.02.14.19.07.29.1.15.15.39.17.55.31.22.26.46.52.54.86.05.15.09.29.08.45,0,1.57,0,3.15,0,4.72-1,0-2,.01-3,0,0-1.37,0-2.74,0-4.11-.01-.39,0-.78-.11-1.16-.05-.11-.15-.19-.25-.26-.21-.04-.42-.09-.63-.04-.03.68,0,1.37-.01,2.06,0,1.17,0,2.35,0,3.52-1.04,0-2.09,0-3.13,0-.04-.02-.08-.04-.12-.07.01-4.1,0-8.2,0-12.3.02-.03.05-.08.06-.11h0ZM34.94,21.37c0,.9,0,1.81,0,2.71.25,0,.52.02.73-.13.18-.17.19-.43.19-.66.06-.41.04-.83.02-1.24-.02-.08-.03-.17-.04-.26-.07-.19-.23-.35-.42-.41-.16-.02-.32-.02-.49-.02h0ZM39.7,19.19c.3-.1.61-.04.92-.05.28.01.57,0,.85.03.33-.05.66-.03,1-.01.19-.04.38,0,.58.03,0,4.15,0,8.31,0,12.46,0,.03-.03.1-.04.13-.91-.01-1.82,0-2.73,0-.19,0-.37.01-.56-.02-.03-.7,0-1.4-.01-2.1,0-3.48,0-6.97,0-10.45h0ZM15.19,32.16c.49-.18,1.05-.17,1.55,0,.08.02.15.02.23.03.06.05.13.08.2.11.24.11.45.27.62.47.06.1.12.2.19.29.1.09.08.25.16.36,0,.14.03.28.1.4.03,1.24,0,2.49.01,3.73.02.33-.05.66-.11.98-.01.06-.05.11-.08.16,0,.03,0,.09,0,.12-.16.25-.32.5-.57.68-.06.04-.12.07-.18.11-.28.16-.59.26-.92.27-.33,0-.67.01-1-.01-.19,0-.36-.11-.54-.16-.15-.07-.3-.14-.42-.26-.16-.17-.35-.32-.46-.53-.04-.09-.09-.18-.14-.26-.05-.27-.08-.54-.12-.81,0-1.25,0-2.49,0-3.74.04-.26.08-.52.11-.78.06-.07.09-.15.1-.25.16-.18.26-.41.47-.55.18-.14.4-.22.6-.33.06,0,.12-.02.19-.02h0ZM15.74,33.43c0,.06,0,.11-.01.17-.03.03-.06.06-.08.09,0,1.43,0,2.87,0,4.3,0,.22.05.44.18.62.1,0,.21,0,.31,0,.17-.14.14-.38.19-.57,0-1.37,0-2.73,0-4.1,0-.17-.06-.34-.11-.5-.02-.02-.06-.05-.08-.07-.13,0-.28-.02-.39.07h0ZM9.1,32.78c.32-.4.82-.59,1.3-.71.35-.02.7-.02,1.05,0,.18.11.4.07.58.17.22.11.47.19.63.39.18.12.32.31.39.51.11.14.06.32.13.48.09.21,0,.45.08.66-.06.21-.02.43-.02.65.07.18-.04.38-.01.57-.63,0-1.27,0-1.9,0,.02-.26-.06-.52-.02-.78.01-.37-.04-.73-.03-1.1,0-.14-.12-.23-.2-.32-.19-.02-.4.06-.44.26-.01.2-.02.41-.05.61,0,1.2,0,2.4,0,3.6.02.23.05.45.05.68.12.19.35.14.53.13.16-.24.09-.54.13-.81.02-.09,0-.17,0-.26-.04-.26.05-.51.03-.77.3-.06.62.06.93-.04.32.08.66-.04.98.04,0,.46,0,.91-.01,1.37-.06.3-.1.62-.29.87-.23.35-.6.56-.97.74-.24.1-.5.1-.76.15-.24,0-.49.02-.73-.03-.18-.02-.37-.02-.52-.13-.45-.07-.8-.4-1.06-.75-.02-.1-.05-.2-.11-.3,0-.14-.04-.28-.1-.4-.03-1.52-.01-3.03,0-4.55-.03-.18.11-.33.11-.5.1-.15.17-.33.31-.45h0ZM40.17,32.16c.16,0,.29-.1.45-.1.25,0,.5,0,.75,0,.45.06.91.16,1.26.45.18.13.31.32.4.52-.01.19.1.36.1.55,0,.29,0,.59,0,.88-.6,0-1.21,0-1.81,0-.02-.35.05-.7-.05-1.04-.02-.02-.07-.05-.1-.06-.03,0-.1,0-.13,0,0-.02-.02-.07-.03-.1-.01.02-.03.06-.04.09-.17.01-.27.18-.28.34-.02.2-.02.4,0,.6.02.17.15.29.26.41.12.12.3.16.4.3.02,0,.07.02.1.02.31.21.63.4.92.63.13.08.22.21.36.28.3.29.47.69.52,1.1.09.53.11,1.08-.02,1.6-.04.12.04.32-.1.39-.05.1-.12.18-.2.25,0,.03-.02.08-.02.11-.03,0-.09.01-.11.02-.13.11-.28.21-.44.27-.08.04-.16.07-.24.1-.15.05-.3.08-.46.09-.32.09-.67.04-1.01.03-.1-.03-.2-.05-.3-.07-.15-.01-.28-.08-.41-.13-.15-.08-.32-.12-.44-.26-.25-.18-.41-.45-.51-.74,0-.14-.03-.29-.09-.42-.02-.41-.01-.81-.01-1.22.31-.02.62.02.92-.04.07,0,.14,0,.2.04.22-.08.45,0,.68,0,.03.07.04.15.04.23,0,.33,0,.66,0,.99,0,.08.03.15.06.22.04.04.07.08.11.12.11,0,.21,0,.32,0,.19-.15.22-.4.21-.63,0-.3,0-.64-.21-.87-.15-.16-.34-.26-.51-.39-.27-.22-.59-.37-.85-.59-.38-.22-.71-.53-.87-.95-.04-.15-.13-.29-.12-.45-.05-.36-.09-.74,0-1.1.02-.16-.03-.35.1-.47,0-.06.01-.12.02-.18.21-.33.51-.65.91-.74.06-.07.16-.09.25-.09h0ZM18.68,32.18c.65,0,1.31,0,1.96,0,.21,0,.42-.02.61.06,0,.1.01.2.02.31.07.32.09.64.17.96.03.24,0,.49.07.73.05.17.06.34.07.51.04.27.11.54.1.81.02,0,.05,0,.07,0-.02-.33.12-.64.11-.97,0-.13.04-.26.06-.39.07-.24.03-.49.05-.73.03-.03.05-.07.08-.1,0-.26,0-.52.07-.77.04-.12.04-.26.07-.38.84,0,1.68.01,2.51,0,.03.39-.03.79.04,1.17-.06.1,0,.2,0,.3,0,.08-.03.17-.04.25,0,1.94.02,3.87,0,5.81-.56,0-1.12,0-1.69,0-.01-1.52,0-3.04,0-4.57-.04.04-.09.07-.13.12-.02.27.02.55-.1.8-.03.21.02.43-.06.63-.01.22-.02.45-.09.66-.02.32-.04.64-.11.95-.01.46-.16.9-.16,1.36-.36.1-.75.03-1.12.05-.03-.01-.09-.04-.13-.05-.1-.23,0-.48-.1-.71-.09-.21-.01-.45-.1-.66-.08-.21-.03-.45-.1-.66-.06-.2-.05-.4-.06-.6-.09-.22-.1-.47-.1-.71-.1-.17-.09-.37-.1-.55-.04,0-.11-.02-.15-.02,0,1.29,0,2.58,0,3.87-.03.03-.06.06-.09.09-.55,0-1.1,0-1.64,0,0-2.52,0-5.05,0-7.57h0ZM25.21,32.27c.07-.03.15-.05.23-.05.75,0,1.5,0,2.25,0,.18.03.36.05.54.05.13.08.3.07.43.17.32.1.56.37.67.69.05.25.16.48.14.74.06-.06.05-.15.05-.22,0-.44.01-.88,0-1.32.05-.04.09-.12.17-.1.72,0,1.44,0,2.16,0,.29.08.61-.02.89.1.08.03.18.04.27.05.11.07.22.15.34.21.19.18.37.39.44.65.03.1.02.21.08.3.03.38.07.76.04,1.15-.04.3-.08.6-.26.85-.12.07-.24.15-.38.19-.05.03-.1.05-.15.08-.06,0-.12.02-.19.02.42.07.75.38.93.75-.01.29.08.57.03.85.04.76,0,1.51.03,2.27-.2.07-.42.04-.63.04-.4,0-.81.01-1.21-.01-.02-.07-.02-.14-.02-.2,0-.93,0-1.87,0-2.8,0-.12-.07-.2-.12-.3-.11-.02-.21-.05-.31-.1-.05,0-.1,0-.15,0-.02,1.13,0,2.26,0,3.39-.64,0-1.27,0-1.91,0-.02-.09-.04-.19-.04-.28,0-1.36,0-2.73,0-4.1-.01,0-.04,0-.06.01,0,.08,0,.16,0,.24-.03.04-.06.09-.09.13.01.29-.18.56-.42.7-.15.07-.29.17-.45.18-.14,0-.26.1-.41.1-.31,0-.61,0-.92,0,0,.99,0,1.98,0,2.98-.03.01-.09.04-.13.06-.52,0-1.03,0-1.55,0-.08,0-.16-.02-.23-.04,0-1.36,0-2.72,0-4.08,0-.12,0-.24-.04-.35-.03-1.01,0-2.01-.01-3.02h0ZM31.5,33.57c0,.51,0,1.03,0,1.54.05.11.19.04.27.06.11-.07.25-.13.26-.27.02-.33,0-.67,0-1.01,0-.13-.09-.22-.17-.31-.13-.03-.26-.1-.38-.01h0ZM27.17,33.79c0,.52,0,1.05,0,1.57.14.02.29.02.44,0,.02-.06.05-.09.11-.11.17-.3.09-.64.1-.97,0-.25.02-.56-.21-.73-.13,0-.26,0-.39-.01-.03.07-.05.15-.05.24h0ZM34.89,32.26s0,.13.01.18c-.02-.03-.04-.07-.05-.1,0,.08.01.17,0,.25-.08.41-.09.83-.17,1.24-.05.18-.03.37-.05.55-.11.24-.05.51-.13.75,0,.08-.02.16-.03.25-.06.43-.13.87-.15,1.3-.1.22-.08.46-.1.7-.11.31-.06.64-.15.95-.06.19-.01.4-.08.6,0,.03-.02.08-.02.11-.08.21-.03.45-.05.67.17.06.36.04.53.04.4,0,.8,0,1.2,0,.09,0,.18-.03.27-.05.01-.03.04-.09.05-.12,0-.23,0-.47.02-.7.07-.14.01-.31.06-.45.23-.05.48,0,.72-.01,0,.27,0,.55.02.82.07.15,0,.33.07.47.09.04.19.04.29.04.45,0,.9,0,1.35,0,.13,0,.26-.04.39-.06-.02,0-.05-.02-.07-.03,0-.11,0-.22-.03-.32-.01-.1-.02-.2-.05-.3-.01-.09-.03-.17-.05-.25,0-.12-.01-.24-.02-.35-.03-.1-.06-.2-.08-.3,0-.27-.03-.54-.1-.8,0-.19-.05-.37-.09-.55-.04-.16,0-.34-.07-.49-.03-.23-.04-.47-.1-.7-.04-.2-.03-.41-.09-.61-.01-.08-.02-.17-.05-.25-.03-.4-.13-.78-.13-1.19-.04-.12-.07-.23-.08-.35-.02-.3-.12-.58-.12-.88-.01-.01-.03-.04-.04-.05-.95-.02-1.9,0-2.85,0h0ZM36.29,34.99c.03-.23,0-.52.16-.71,0,.17,0,.34.02.51.1.66.12,1.34.21,2,.03.09.02.19-.01.28-.19,0-.38,0-.57,0-.04-.09-.05-.18-.02-.28.06-.23,0-.47.07-.7.06-.2.06-.4.07-.61.03-.17.05-.34.09-.5Z"/>
</svg>