<?xml version="1.0" encoding="UTF-8"?>
<svg id="Layer_1" data-name="Layer 1" xmlns="http://www.w3.org/2000/svg" viewBox="0 0 100 100">
  <defs>
    <style>
      .cls-1 {
        fill: #bda659;
      }

      .cls-2 {
        fill: #1f2f3e;
      }
    </style>
  </defs>
  <path class="cls-1" d="M44.3,90.7h10.89c.21,0,.38-.17.38-.38v-10.89c0-.21-.17-.38-.38-.38h-10.89c-.21,0-.38.17-.38.38v10.89c0,.21.17.38.38.38"/>
  <path class="cls-1" d="M44.3,21.11h10.89c.21,0,.38-.17.38-.38v-10.89c0-.21-.17-.38-.38-.38h-10.89c-.21,0-.38.17-.38.38v10.89c0,.21.17.38.38.38"/>
  <path class="cls-2" d="M70.16,38.69c-.38-.07-.93-.13-1.62-.17-.15,0-.3-.02-.46-.03-.39-.02-2.79-.09-3.63-.09-2.76-.01-5.91.06-8.32.02-.36,0-.64-.3-.64-.66v-6.78s0-.02,0-.03v-5.31c0-.67-.55-1.23-1.23-1.23l-12.06-.02s-5.08.03-7.92.1c-3.54.09-5.97.41-7.21.97-7.28,2.65-12.13,9.62-12.13,17.36s5.09,14.93,12.35,17.44c.54.18,1.05.33,1.53.45,1.01.25,3.5.53,4.08.56,3.29.17,7.77.12,10.91.16v4.48c-.05.12,0,8.52,0,8.52,0,.54.45.99.99.99l14.4.02s3.06-.03,5.9-.1c3.54-.09,5.97-.41,7.21-.96,7.27-2.65,12.13-9.62,12.13-17.37s-4.89-14.94-11.91-17.62c-.19-.07-.39-.14-.58-.21-.58-.2-1.18-.37-1.79-.51M65.79,65.19h-9.84c-.22,0-.4-.18-.4-.4v-2.95c0-.21.17-.38.38-.38h10.15v-.03c2.53-.15,4.55-2.24,4.55-4.81s-2.17-4.84-4.84-4.84c-.08,0-.16.02-.24.02v-.05h-12.29s-19.26.01-19.26.01c-4.5,0-8.56-3.29-8.94-7.77-.44-5.07,3.57-9.33,8.54-9.33h9.68c.31,0,.56.25.56.56v2.62c0,.3-.24.54-.54.54h-9.55v.04c-.05,0-.1-.01-.14-.01-3.06,0-5.46,2.85-4.7,6.04.53,2.2,2.66,3.64,4.93,3.64h13.82s17.85,0,17.85,0c4.1,0,7.88,2.75,8.68,6.77,1.1,5.5-3.1,10.34-8.4,10.34Z"/>
</svg>