<?xml version="1.0" encoding="UTF-8"?>
<svg id="Camada_1" data-name="Camada 1" xmlns="http://www.w3.org/2000/svg" viewBox="0 0 2179.25 561.93">
  <defs>
    <style>
      .cls-1 {
        fill: #b79448;
      }

      .cls-2 {
        fill: #1c2c39;
      }
    </style>
  </defs>
  <g>
    <path class="cls-1" d="M187.05,481.82h61.19c1.17,0,2.12-.95,2.12-2.11v-61.2c0-1.17-.95-2.11-2.12-2.11h-61.19c-1.17,0-2.11.95-2.11,2.11v61.2c0,1.17.95,2.11,2.11,2.11"/>
    <path class="cls-1" d="M187.1,90.58h61.2c1.17,0,2.12-.95,2.12-2.11V27.26c0-1.17-.95-2.11-2.12-2.11h-61.2c-1.17,0-2.11.95-2.11,2.11v61.2c0,1.17.95,2.11,2.11,2.11"/>
  </g>
  <g>
    <path class="cls-2" d="M611.02,156.54h-29.55c-3.87,0-7.01,3.14-7.01,7.01v161.26c0,6.47-.49,12.07-1.46,16.63-.94,4.42-2.54,8.1-4.75,10.95-2.16,2.79-5.15,4.91-8.89,6.28-2.83,1.03-6.24,1.69-10.16,1.97-3.83.28-6.71,3.28-6.71,6.97v20.87c0,1.89.79,3.74,2.17,5.08,1.33,1.29,3.05,1.99,4.87,1.99h.23c9.31-.31,17.87-1.47,25.45-3.44,9.1-2.38,16.92-6.28,23.27-11.58,6.37-5.32,11.29-12.34,14.61-20.87,3.3-8.46,4.96-18.96,4.96-31.22v-164.88c0-3.87-3.14-7.01-7.01-7.01"/>
    <path class="cls-2" d="M812.01,170.28c-7.6-4.83-16.3-8.32-25.85-10.38-9.47-2.03-19.4-3.05-29.54-3.05h-79.8c-3.87,0-7.01,3.14-7.01,7.01v183.13c0,3.87,3.14,7.01,7.01,7.01h29.86c3.86,0,7.01-3.14,7.01-7.01v-61.24c0-1.63,1.33-2.96,2.96-2.96h39.98c9.56,0,19.21-1.14,28.67-3.37,9.57-2.26,18.27-5.96,25.85-11,7.66-5.08,14.01-11.68,18.86-19.64,4.9-8.02,7.38-17.77,7.38-28.97,0-11.76-2.32-21.84-6.9-29.95-4.57-8.1-10.79-14.69-18.49-19.57M793.81,217.39c0,5.64-1.07,10.33-3.19,13.91-2.14,3.64-4.97,6.6-8.41,8.83-3.48,2.26-7.55,3.83-12.09,4.7-4.7.87-9.55,1.32-14.41,1.32h-39.07c-1.63,0-2.96-1.32-2.96-2.96v-46.76c0-1.63,1.33-2.96,2.96-2.96h39.07c4.54,0,9.24.26,13.97.75,4.56.47,8.71,1.58,12.32,3.27,3.48,1.66,6.36,4.07,8.56,7.19,2.16,3.06,3.25,7.33,3.25,12.71Z"/>
    <path class="cls-2" d="M910.34,157.14h-29.85c-3.87,0-7.01,3.15-7.01,7.02v182.83c0,3.86,3.14,7.01,7.01,7.01h29.85c3.87,0,7.01-3.15,7.01-7.01v-182.83c0-3.87-3.14-7.02-7.01-7.02"/>
    <path class="cls-2" d="M1207.05,348.93c.65,1,1.71,1.57,2.9,1.57h17.11c1.3,0,2.55-.83,3.19-2.12l15.36-33.42c1.15-2.31,3.42-3.72,5.93-3.72h78.63c2.66,0,5.01,1.53,5.96,3.91l15.1,33.28c.62,1.23,1.87,2.06,3.17,2.06h18.09c1.15,0,2.22-.6,2.87-1.6.67-1.03.78-2.3.3-3.4l-82.31-180.37c-.8-2.07-3.99-2.01-4.74-.37-.07.16-.18.31-.3.44-.04.1-.08.2-.09.23l-81.43,180.08c-.5,1.12-.4,2.4.27,3.42M1260.12,283.36l24.86-53.78c1.03-2.27,3.25-3.71,5.8-3.75,2.67.11,4.93,1.4,6.06,3.72l24.75,53.8c.91,2.06.74,4.38-.46,6.23-1.2,1.84-3.24,2.93-5.48,2.93h-49.59c-2.2,0-4.24-1.11-5.44-2.97-1.21-1.85-1.39-4.16-.5-6.18Z"/>
    <path class="cls-2" d="M1498.47,276.52c8.89,0,17.8-1.1,26.49-3.27,8.64-2.16,16.45-5.54,23.21-10.05,6.71-4.47,12.23-10.39,16.42-17.61,4.18-7.16,6.28-15.84,6.28-25.79,0-10.73-2.01-19.77-5.99-26.86-3.99-7.09-9.35-12.91-15.96-17.29-6.63-4.39-14.37-7.56-23.02-9.43-8.73-1.88-17.96-2.83-27.44-2.83h-74.36c-1.91,0-3.47,1.55-3.47,3.47v180.12c0,1.91,1.56,3.46,3.47,3.46h17.19c1.91,0,3.46-1.55,3.46-3.46v-63.95c0-3.59,2.92-6.51,6.5-6.51h47.21ZM1444.75,249.52v-59.11c0-3.59,2.92-6.51,6.5-6.51h46.62c5.48,0,11.13.36,16.78,1.07,5.75.71,11.03,2.24,15.72,4.52,4.73,2.3,8.67,5.67,11.74,9.99,3.09,4.36,4.65,10.28,4.65,17.61s-1.44,13.51-4.27,18.56c-2.82,5.01-6.53,9.09-11.04,12.13-4.47,3.02-9.72,5.17-15.62,6.4-5.79,1.23-11.83,1.85-17.96,1.85h-46.62c-3.58,0-6.5-2.92-6.5-6.5Z"/>
    <path class="cls-2" d="M1634.09,163.4h-17.19c-1.91,0-3.47,1.56-3.47,3.46v180.12c0,1.91,1.56,3.46,3.47,3.46h17.19c1.91,0,3.46-1.56,3.46-3.46v-180.12c0-1.91-1.55-3.46-3.46-3.46"/>
    <path class="cls-2" d="M1821.16,163.4h-147.23c-1.91,0-3.47,1.56-3.47,3.46v13.57c0,1.91,1.56,3.47,3.47,3.47h55.2c3.58,0,6.51,2.92,6.51,6.5v156.58c0,1.91,1.56,3.46,3.47,3.46h16.87c1.91,0,3.47-1.56,3.47-3.46v-156.58c0-3.59,2.92-6.5,6.51-6.5h55.2c1.91,0,3.47-1.56,3.47-3.47v-13.57c0-1.91-1.56-3.46-3.47-3.46"/>
    <path class="cls-2" d="M1856.41,311.23h78.68c2.55,0,4.87,1.5,5.93,3.82l15.14,33.36c.56,1.24,1.81,2.04,3.16,2.04h18c1.2,0,2.26-.58,2.91-1.59.65-1.01.74-2.22.24-3.32l-82.97-182.14h-3.48l-82.41,182.15c-.5,1.09-.4,2.29.25,3.31.65,1.01,1.71,1.59,2.91,1.59h17.14c1.34,0,2.58-.79,3.15-2.02l15.43-33.42c1.05-2.3,3.37-3.78,5.91-3.78M1865.06,283.31l24.8-53.72c1.07-2.33,3.34-3.77,5.9-3.77s4.83,1.44,5.91,3.77l24.79,53.72c.94,2.03.78,4.36-.42,6.23-1.2,1.88-3.25,3.01-5.48,3.01h-49.59c-2.23,0-4.28-1.13-5.48-3.01-1.2-1.87-1.36-4.2-.43-6.23Z"/>
    <path class="cls-2" d="M2028.67,163.4c-1.91,0-3.47,1.56-3.47,3.46v180.12c0,1.91,1.55,3.46,3.47,3.46h120.08c1.9,0,3.46-1.56,3.46-3.46v-13.57c0-1.91-1.56-3.46-3.46-3.46h-92.93c-3.58,0-6.5-2.92-6.5-6.51v-156.58c0-1.91-1.55-3.46-3.46-3.46h-17.18Z"/>
    <path class="cls-2" d="M1026.9,217.3c-5.61,11.71-8.45,25.04-8.45,39.62s2.8,27.62,8.3,39.33c5.51,11.72,13.1,21.85,22.56,30.13,9.46,8.28,20.62,14.78,33.15,19.33,12.53,4.54,25.91,6.85,39.76,6.85.24,0,.46-.02.69-.04.28-.01.6-.1.85-.03.12,0,.24.01.36.04,1.34-.03,2.68-.12,4.01-.21.83-.05,1.64-.11,2.46-.15.57-.03,1.17-.06,1.76-.08.91-.03,1.83-.07,2.7-.15,6.75-.54,12.31-1.27,17.54-2.32,8.93-1.79,17.3-5.16,24.91-10.02,1-.64,1.63-1.81,1.63-3.04v-15c0-1.28-.67-2.42-1.79-3.04-1.07-.6-2.29-.59-3.33.05-6.36,3.88-13.13,6.84-20.1,8.81-3.66,1.03-7.74,1.87-12.83,2.67-1.48.21-2.92.41-4.38.58-3.87.44-7.51.69-11.1.75-.27,0-.52.03-.79.04-.35.03-.7.06-1.07.06-10.8,0-21.22-1.76-30.97-5.22-9.77-3.44-18.47-8.47-25.84-14.92-7.36-6.44-13.32-14.37-17.72-23.57-4.4-9.21-6.63-19.59-6.63-30.83s2.24-21.88,6.63-30.99c4.4-9.1,10.36-16.97,17.72-23.41,7.35-6.43,16.04-11.45,25.84-14.92,19.2-6.8,41.39-6.68,61.26-1.09,7,1.97,13.76,4.93,20.11,8.81,1.04.63,2.25.65,3.34.04,1.12-.62,1.78-1.76,1.78-3.04v-14.99c0-1.24-.62-2.41-1.62-3.05-7.61-4.85-15.98-8.23-24.91-10.02-9.93-1.97-20.09-2.98-30.18-2.98-13.82,0-27.2,2.25-39.77,6.7-12.53,4.44-23.68,10.89-33.15,19.18-9.45,8.27-17.1,18.41-22.72,30.14"/>
    <path class="cls-2" d="M332.47,189.39c-2.12-.4-5.24-.71-9.09-.96-.83-.05-1.7-.1-2.59-.15-2.18-.11-15.67-.5-20.39-.52-15.5-.07-33.24.31-46.79.1-2.04-.03-3.6-1.69-3.6-3.73v-38.09c0-.05-.03-.09-.03-.15v-29.84c0-3.79-3.11-6.89-6.9-6.9l-67.81-.09c-.13.01-28.56.16-44.53.57-19.93.5-33.55,2.33-40.51,5.43-40.9,14.88-68.18,54.06-68.18,97.61s28.61,83.92,69.44,98.06c3.03,1.03,5.92,1.87,8.63,2.56,5.67,1.43,19.68,2.97,22.91,3.13,18.49.98,43.67.67,61.33.93v25.21c-.26.7.05,47.88.05,47.88,0,3.06,2.5,5.56,5.56,5.56l80.93.09c.13-.01,17.2-.17,33.17-.56,19.92-.5,33.54-2.33,40.5-5.42,40.9-14.89,68.18-54.07,68.18-97.63s-27.51-83.96-66.98-99.07c-1.08-.41-2.18-.81-3.27-1.19-3.27-1.12-6.62-2.07-10.04-2.84M307.89,338.41h-55.32c-1.24,0-2.25-1.01-2.25-2.25v-16.61c0-1.18.95-2.12,2.12-2.12h57.05v-.17c14.24-.86,25.57-12.57,25.57-27.05s-12.18-27.21-27.21-27.21c-.46,0-.9.11-1.35.14v-.3h-69.08v.07h-108.26c-25.31,0-48.1-18.49-50.27-43.7-2.45-28.5,20.04-52.48,48.04-52.48h54.44c1.74,0,3.17,1.42,3.17,3.16v14.7c0,1.68-1.37,3.05-3.05,3.05h-53.7l-.03.25c-.27,0-.52-.08-.79-.08-17.22,0-30.71,16.01-26.39,33.96,2.97,12.37,14.98,20.46,27.69,20.46h77.69v-.02h100.36c23.07,0,44.29,15.45,48.8,38.08,6.18,30.9-17.41,58.1-47.23,58.1Z"/>
    <path class="cls-2" d="M1739.42,533.84v-87.29h40.79c3.82,0,7.68.36,11.6,1.09,3.91.73,7.47,1.99,10.7,3.81,3.23,1.83,5.85,4.26,7.85,7.3,2,3.05,2.99,6.85,2.99,11.4,0,1.81-.26,3.66-.82,5.52-.54,1.86-1.33,3.62-2.38,5.24-1.05,1.65-2.37,3.08-3.95,4.3-1.59,1.23-3.47,2.21-5.67,2.95,2.83.46,5.32,1.35,7.51,2.72,2.19,1.36,4,3.01,5.46,4.92,1.45,1.91,2.55,4.02,3.27,6.34.73,2.32,1.1,4.71,1.1,7.15,0,4.92-1.1,8.94-3.28,12.08-2.18,3.13-4.98,5.64-8.39,7.49-3.41,1.87-7.18,3.16-11.33,3.89-4.14.73-8.2,1.09-12.21,1.09h-43.24ZM1757.43,482.68h21.7c1.91,0,3.84-.15,5.79-.48,1.95-.32,3.7-.89,5.25-1.71,1.54-.8,2.82-1.93,3.82-3.34.99-1.41,1.5-3.24,1.5-5.53s-.5-4.25-1.5-5.66c-1-1.4-2.3-2.53-3.89-3.34-1.59-.82-3.34-1.36-5.25-1.64-1.91-.27-3.82-.41-5.73-.41h-21.7v22.1ZM1757.43,519.79h24.69c2.09,0,4.19-.11,6.28-.33,2.09-.23,3.97-.76,5.64-1.58,1.69-.81,3.08-1.97,4.17-3.47,1.1-1.5,1.64-3.52,1.64-6.07s-.53-4.59-1.57-6.14c-1.04-1.54-2.43-2.73-4.15-3.54-1.74-.82-3.64-1.36-5.73-1.64-2.1-.26-4.19-.41-6.28-.41h-24.69v23.19Z"/>
    <path class="cls-2" d="M1901.2,519.79h-36.57l-6.68,14.06h-18.55l40.24-87.17h6.55l40.51,87.17h-18.96l-6.54-14.06ZM1894.64,505.88l-11.6-25.1-11.74,25.1h23.34Z"/>
    <polygon class="cls-2" points="1956.08 533.84 1956.08 446.67 1965.64 446.67 2016.52 501.37 2016.52 446.67 2034.53 446.67 2034.53 533.84 2024.98 533.84 1974.09 479.14 1974.09 533.84 1956.08 533.84"/>
    <polygon class="cls-2" points="2069.95 533.84 2069.95 446.67 2087.96 446.67 2087.96 488.41 2129.3 446.67 2150.3 446.67 2112.1 486.23 2152.21 533.84 2131.07 533.84 2100.24 498.65 2087.96 510.93 2087.96 533.84 2069.95 533.84"/>
  </g>
</svg>