<?xml version="1.0" encoding="UTF-8"?>
<svg id="Camada_1" xmlns="http://www.w3.org/2000/svg" version="1.1" viewBox="0 0 2179.2 561.9">
  <!-- Generator: Adobe Illustrator 29.8.1, SVG Export Plug-In . SVG Version: 2.1.1 Build 2)  -->
  <defs>
    <style>
      .st0 {
        fill: #b79448;
      }

      .st1 {
        fill: #fff;
      }
    </style>
  </defs>
  <g>
    <path class="st0" d="M187.1,481.8h61.2c1.2,0,2.1-1,2.1-2.1v-61.2c0-1.2-.9-2.1-2.1-2.1h-61.2c-1.2,0-2.1,1-2.1,2.1v61.2c0,1.2.9,2.1,2.1,2.1"/>
    <path class="st0" d="M187.1,90.6h61.2c1.2,0,2.1-.9,2.1-2.1V27.3c0-1.2-.9-2.1-2.1-2.1h-61.2c-1.2,0-2.1,1-2.1,2.1v61.2c0,1.2.9,2.1,2.1,2.1"/>
  </g>
  <g>
    <path class="st1" d="M611,156.5h-29.5c-3.9,0-7,3.1-7,7v161.3c0,6.5-.5,12.1-1.5,16.6-.9,4.4-2.5,8.1-4.8,11-2.2,2.8-5.2,4.9-8.9,6.3-2.8,1-6.2,1.7-10.2,2-3.8.3-6.7,3.3-6.7,7v20.9c0,1.9.8,3.7,2.2,5.1,1.3,1.3,3,2,4.9,2h.2c9.3-.3,17.9-1.5,25.5-3.4,9.1-2.4,16.9-6.3,23.3-11.6,6.4-5.3,11.3-12.3,14.6-20.9,3.3-8.5,5-19,5-31.2v-164.9c0-3.9-3.1-7-7-7"/>
    <path class="st1" d="M812,170.3c-7.6-4.8-16.3-8.3-25.8-10.4-9.5-2-19.4-3.1-29.5-3.1h-79.8c-3.9,0-7,3.1-7,7v183.1c0,3.9,3.1,7,7,7h29.9c3.9,0,7-3.1,7-7v-61.2c0-1.6,1.3-3,3-3h40c9.6,0,19.2-1.1,28.7-3.4,9.6-2.3,18.3-6,25.8-11,7.7-5.1,14-11.7,18.9-19.6,4.9-8,7.4-17.8,7.4-29s-2.3-21.8-6.9-29.9c-4.6-8.1-10.8-14.7-18.5-19.6M793.8,217.4c0,5.6-1.1,10.3-3.2,13.9-2.1,3.6-5,6.6-8.4,8.8-3.5,2.3-7.5,3.8-12.1,4.7-4.7.9-9.5,1.3-14.4,1.3h-39.1c-1.6,0-3-1.3-3-3v-46.8c0-1.6,1.3-3,3-3h39.1c4.5,0,9.2.3,14,.8,4.6.5,8.7,1.6,12.3,3.3,3.5,1.7,6.4,4.1,8.6,7.2,2.2,3.1,3.2,7.3,3.2,12.7h0Z"/>
    <path class="st1" d="M910.3,157.1h-29.8c-3.9,0-7,3.1-7,7v182.8c0,3.9,3.1,7,7,7h29.8c3.9,0,7-3.1,7-7v-182.8c0-3.9-3.1-7-7-7"/>
    <path class="st1" d="M1207.1,348.9c.7,1,1.7,1.6,2.9,1.6h17.1c1.3,0,2.6-.8,3.2-2.1l15.4-33.4c1.2-2.3,3.4-3.7,5.9-3.7h78.6c2.7,0,5,1.5,6,3.9l15.1,33.3c.6,1.2,1.9,2.1,3.2,2.1h18.1c1.2,0,2.2-.6,2.9-1.6.7-1,.8-2.3.3-3.4l-82.3-180.4c-.8-2.1-4-2-4.7-.4,0,.2-.2.3-.3.4,0,.1,0,.2,0,.2l-81.4,180.1c-.5,1.1-.4,2.4.3,3.4M1260.1,283.4l24.9-53.8c1-2.3,3.2-3.7,5.8-3.8,2.7.1,4.9,1.4,6.1,3.7l24.8,53.8c.9,2.1.7,4.4-.5,6.2-1.2,1.8-3.2,2.9-5.5,2.9h-49.6c-2.2,0-4.2-1.1-5.4-3-1.2-1.9-1.4-4.2-.5-6.2h0Z"/>
    <path class="st1" d="M1498.5,276.5c8.9,0,17.8-1.1,26.5-3.3,8.6-2.2,16.4-5.5,23.2-10,6.7-4.5,12.2-10.4,16.4-17.6,4.2-7.2,6.3-15.8,6.3-25.8s-2-19.8-6-26.9c-4-7.1-9.3-12.9-16-17.3-6.6-4.4-14.4-7.6-23-9.4-8.7-1.9-18-2.8-27.4-2.8h-74.4c-1.9,0-3.5,1.6-3.5,3.5v180.1c0,1.9,1.6,3.5,3.5,3.5h17.2c1.9,0,3.5-1.5,3.5-3.5v-64c0-3.6,2.9-6.5,6.5-6.5h47.2ZM1444.8,249.5v-59.1c0-3.6,2.9-6.5,6.5-6.5h46.6c5.5,0,11.1.4,16.8,1.1,5.8.7,11,2.2,15.7,4.5,4.7,2.3,8.7,5.7,11.7,10,3.1,4.4,4.7,10.3,4.7,17.6s-1.4,13.5-4.3,18.6c-2.8,5-6.5,9.1-11,12.1-4.5,3-9.7,5.2-15.6,6.4-5.8,1.2-11.8,1.9-18,1.9h-46.6c-3.6,0-6.5-2.9-6.5-6.5h0Z"/>
    <path class="st1" d="M1634.1,163.4h-17.2c-1.9,0-3.5,1.6-3.5,3.5v180.1c0,1.9,1.6,3.5,3.5,3.5h17.2c1.9,0,3.5-1.6,3.5-3.5v-180.1c0-1.9-1.6-3.5-3.5-3.5"/>
    <path class="st1" d="M1821.2,163.4h-147.2c-1.9,0-3.5,1.6-3.5,3.5v13.6c0,1.9,1.6,3.5,3.5,3.5h55.2c3.6,0,6.5,2.9,6.5,6.5v156.6c0,1.9,1.6,3.5,3.5,3.5h16.9c1.9,0,3.5-1.6,3.5-3.5v-156.6c0-3.6,2.9-6.5,6.5-6.5h55.2c1.9,0,3.5-1.6,3.5-3.5v-13.6c0-1.9-1.6-3.5-3.5-3.5"/>
    <path class="st1" d="M1856.4,311.2h78.7c2.6,0,4.9,1.5,5.9,3.8l15.1,33.4c.6,1.2,1.8,2,3.2,2h18c1.2,0,2.3-.6,2.9-1.6s.7-2.2.2-3.3l-83-182.1h-3.5l-82.4,182.2c-.5,1.1-.4,2.3.2,3.3.7,1,1.7,1.6,2.9,1.6h17.1c1.3,0,2.6-.8,3.2-2l15.4-33.4c1.1-2.3,3.4-3.8,5.9-3.8M1865.1,283.3l24.8-53.7c1.1-2.3,3.3-3.8,5.9-3.8s4.8,1.4,5.9,3.8l24.8,53.7c.9,2,.8,4.4-.4,6.2-1.2,1.9-3.2,3-5.5,3h-49.6c-2.2,0-4.3-1.1-5.5-3-1.2-1.9-1.4-4.2-.4-6.2h0Z"/>
    <path class="st1" d="M2028.7,163.4c-1.9,0-3.5,1.6-3.5,3.5v180.1c0,1.9,1.6,3.5,3.5,3.5h120.1c1.9,0,3.5-1.6,3.5-3.5v-13.6c0-1.9-1.6-3.5-3.5-3.5h-92.9c-3.6,0-6.5-2.9-6.5-6.5v-156.6c0-1.9-1.6-3.5-3.5-3.5h-17.2Z"/>
    <path class="st1" d="M1026.9,217.3c-5.6,11.7-8.5,25-8.5,39.6s2.8,27.6,8.3,39.3c5.5,11.7,13.1,21.9,22.6,30.1,9.5,8.3,20.6,14.8,33.2,19.3,12.5,4.5,25.9,6.9,39.8,6.9s.5,0,.7,0c.3,0,.6-.1.8,0,.1,0,.2,0,.4,0,1.3,0,2.7-.1,4-.2.8,0,1.6-.1,2.5-.1.6,0,1.2,0,1.8,0,.9,0,1.8,0,2.7-.1,6.8-.5,12.3-1.3,17.5-2.3,8.9-1.8,17.3-5.2,24.9-10,1-.6,1.6-1.8,1.6-3v-15c0-1.3-.7-2.4-1.8-3-1.1-.6-2.3-.6-3.3,0-6.4,3.9-13.1,6.8-20.1,8.8-3.7,1-7.7,1.9-12.8,2.7-1.5.2-2.9.4-4.4.6-3.9.4-7.5.7-11.1.8-.3,0-.5,0-.8,0-.3,0-.7,0-1.1,0-10.8,0-21.2-1.8-31-5.2-9.8-3.4-18.5-8.5-25.8-14.9-7.4-6.4-13.3-14.4-17.7-23.6-4.4-9.2-6.6-19.6-6.6-30.8s2.2-21.9,6.6-31c4.4-9.1,10.4-17,17.7-23.4,7.3-6.4,16-11.4,25.8-14.9,19.2-6.8,41.4-6.7,61.3-1.1,7,2,13.8,4.9,20.1,8.8,1,.6,2.2.6,3.3,0,1.1-.6,1.8-1.8,1.8-3v-15c0-1.2-.6-2.4-1.6-3.1-7.6-4.9-16-8.2-24.9-10-9.9-2-20.1-3-30.2-3s-27.2,2.2-39.8,6.7c-12.5,4.4-23.7,10.9-33.2,19.2-9.4,8.3-17.1,18.4-22.7,30.1"/>
    <path class="st1" d="M332.5,189.4c-2.1-.4-5.2-.7-9.1-1-.8,0-1.7-.1-2.6-.1-2.2-.1-15.7-.5-20.4-.5-15.5,0-33.2.3-46.8.1-2,0-3.6-1.7-3.6-3.7v-38.1c0,0,0,0,0-.1v-29.8c0-3.8-3.1-6.9-6.9-6.9h-67.8c-.1,0-28.6,0-44.5.5-19.9.5-33.6,2.3-40.5,5.4-40.9,14.9-68.2,54.1-68.2,97.6s28.6,83.9,69.4,98.1c3,1,5.9,1.9,8.6,2.6,5.7,1.4,19.7,3,22.9,3.1,18.5,1,43.7.7,61.3.9v25.2c-.3.7,0,47.9,0,47.9,0,3.1,2.5,5.6,5.6,5.6h80.9c.1,0,17.2,0,33.2-.5,19.9-.5,33.5-2.3,40.5-5.4,40.9-14.9,68.2-54.1,68.2-97.6s-27.5-84-67-99.1c-1.1-.4-2.2-.8-3.3-1.2-3.3-1.1-6.6-2.1-10-2.8M307.9,338.4h-55.3c-1.2,0-2.2-1-2.2-2.2v-16.6c0-1.2.9-2.1,2.1-2.1h57v-.2c14.2-.9,25.6-12.6,25.6-27s-12.2-27.2-27.2-27.2-.9.1-1.4.1v-.3h-69.1c0,0-108.3,0-108.3,0-25.3,0-48.1-18.5-50.3-43.7-2.4-28.5,20-52.5,48-52.5h54.4c1.7,0,3.2,1.4,3.2,3.2v14.7c0,1.7-1.4,3.1-3.1,3.1h-53.7v.2c-.3,0-.5,0-.8,0-17.2,0-30.7,16-26.4,34,3,12.4,15,20.5,27.7,20.5h77.7s100.4,0,100.4,0c23.1,0,44.3,15.4,48.8,38.1,6.2,30.9-17.4,58.1-47.2,58.1h0Z"/>
    <path class="st1" d="M1739.4,533.8v-87.3h40.8c3.8,0,7.7.4,11.6,1.1,3.9.7,7.5,2,10.7,3.8,3.2,1.8,5.8,4.3,7.8,7.3,2,3,3,6.9,3,11.4s-.3,3.7-.8,5.5c-.5,1.9-1.3,3.6-2.4,5.2-1.1,1.6-2.4,3.1-3.9,4.3-1.6,1.2-3.5,2.2-5.7,3,2.8.5,5.3,1.4,7.5,2.7,2.2,1.4,4,3,5.5,4.9,1.4,1.9,2.6,4,3.3,6.3.7,2.3,1.1,4.7,1.1,7.1,0,4.9-1.1,8.9-3.3,12.1-2.2,3.1-5,5.6-8.4,7.5-3.4,1.9-7.2,3.2-11.3,3.9-4.1.7-8.2,1.1-12.2,1.1h-43.2ZM1757.4,482.7h21.7c1.9,0,3.8-.1,5.8-.5,1.9-.3,3.7-.9,5.2-1.7,1.5-.8,2.8-1.9,3.8-3.3,1-1.4,1.5-3.2,1.5-5.5s-.5-4.2-1.5-5.7c-1-1.4-2.3-2.5-3.9-3.3-1.6-.8-3.3-1.4-5.2-1.6-1.9-.3-3.8-.4-5.7-.4h-21.7v22.1h0ZM1757.4,519.8h24.7c2.1,0,4.2-.1,6.3-.3,2.1-.2,4-.8,5.6-1.6,1.7-.8,3.1-2,4.2-3.5,1.1-1.5,1.6-3.5,1.6-6.1s-.5-4.6-1.6-6.1c-1-1.5-2.4-2.7-4.2-3.5-1.7-.8-3.6-1.4-5.7-1.6-2.1-.3-4.2-.4-6.3-.4h-24.7v23.2h0Z"/>
    <path class="st1" d="M1901.2,519.8h-36.6l-6.7,14.1h-18.6l40.2-87.2h6.6l40.5,87.2h-19l-6.5-14.1ZM1894.6,505.9l-11.6-25.1-11.7,25.1h23.3Z"/>
    <polygon class="st1" points="1956.1 533.8 1956.1 446.7 1965.6 446.7 2016.5 501.4 2016.5 446.7 2034.5 446.7 2034.5 533.8 2025 533.8 1974.1 479.1 1974.1 533.8 1956.1 533.8"/>
    <polygon class="st1" points="2069.9 533.8 2069.9 446.7 2088 446.7 2088 488.4 2129.3 446.7 2150.3 446.7 2112.1 486.2 2152.2 533.8 2131.1 533.8 2100.2 498.6 2088 510.9 2088 533.8 2069.9 533.8"/>
  </g>
</svg>